# This file uses centimeters as units for non-parametric coordinates.

g default
v -19.647209 27.480771 21.881455
v -14.992218 119.948074 4.590210
v 14.992218 119.948074 4.590210
v 19.647209 35.579127 21.881455
v -23.676897 30.144251 -31.773682
v -14.992218 119.948074 -25.394227
v 14.992218 119.948074 -25.394227
v 28.170877 43.168251 -32.398674
v 0.000000 119.948074 9.587616
v -19.989625 119.948074 -10.402008
v 19.989625 119.948074 -10.402008
v 0.000000 119.948074 -30.391632
v -1.640784 461.954880 -10.688425
v 0.000000 35.579127 28.430549
v -31.891402 25.981628 -12.758600
v 37.880683 43.168251 -9.922188
v -4.661814 25.981628 -38.112043
v 0.457390 296.995693 6.559605
v -16.961613 283.685753 -10.859398
v 16.745702 294.234340 -10.402008
v 0.000000 294.234340 -27.147711
v -12.559237 294.234340 2.157229
v 12.559237 294.234340 -22.961245
v -12.988000 283.685753 -22.780234
v 12.378226 296.995693 2.585993
v 0.365237 318.092868 5.853521
v -16.255530 304.782853 -10.767246
v -9.268259 305.152562 -23.514630
v 11.917700 318.092868 2.002727
v -7.901423 -9.733274 43.743380
v -42.286273 -10.034985 -12.758600
v 44.840267 -12.412675 -6.958802
v -4.661814 -10.034985 -50.383059
v 32.988135 -12.412675 -42.515284
v 37.057898 -9.733274 28.756886
v -29.156475 -9.733274 31.390721
v 39.985603 -16.051875 90.712491
v 25.978904 -16.051875 95.381362
v 72.325140 -18.820052 -26.156543
v 65.776434 -18.820052 -45.802651
v -34.353637 13.169697 -43.762831
v -57.583182 -11.413979 -65.980426
v -16.037971 8.089787 -49.466005
v -31.502794 -10.976118 -75.426792
v -66.677645 -11.479466 -40.822033
v -42.653158 7.724547 -24.489407
v -0.310260 376.691384 7.647161
v -12.150316 368.614900 -12.952002
v 15.926212 340.504723 -8.838162
v 0.370884 353.814757 -25.930591
v 11.512935 338.927160 -22.303394
v -12.887848 376.691384 3.454657
v 6.754576 365.366356 0.018744
v -13.038038 353.814757 -21.460926
v -0.613068 399.610587 4.191563
v 12.333288 369.919613 -9.005291
v -0.029489 381.206533 -22.862662
v -10.920336 399.610587 0.755807
v 8.622721 371.257460 -19.946097
v -11.018057 381.206533 -19.199780
v -1.640784 460.469464 -7.339410
v -9.162931 451.190623 -10.565608
v -1.640784 460.469464 -14.037440
v 4.917488 450.869830 -6.994643
v -8.072709 451.190623 -7.295021
v 4.917488 450.869830 -14.382209
v -8.072709 451.190623 -13.836117
v 2.624501 363.280022 -26.231047
v -6.389888 350.659612 -23.827243
v -14.953632 363.280022 -20.371724
v -5.475971 383.882003 -20.919698
v -88.365930 524.237206 -271.374590
v -1.544788 307.544280 6.858571
v 6.463845 293.479553 4.680245
v 14.104026 307.544280 1.642352
v 6.095471 321.609008 3.820679
v 83.156071 432.970077 319.621769
v 7.496109 119.948074 7.088913
v -6.437494 453.013175 -15.663245
v -49.990061 441.704938 -169.220709
v -54.188760 438.632011 -169.107134
v -57.610398 441.728386 -166.674466
v -53.923988 446.637403 -168.349766
v -56.221368 439.234966 -167.092641
v -51.350856 439.222550 -168.715698
v -49.827402 443.882240 -167.409096
v -56.635229 443.903968 -165.119173
v 49.379580 388.384774 147.893569
v 54.391257 385.158332 148.473151
v 58.045201 388.404370 144.996540
v 54.063354 395.288594 147.534921
v 49.231506 390.523332 146.030525
v 56.632564 386.017532 145.827085
v 57.028544 390.541994 143.412058
v 51.006793 386.006911 147.704087
v 16.226747 349.970082 -6.584545
v 13.822862 337.349672 -15.598934
v 10.367343 349.970082 -24.162677
v 10.390401 372.595195 -14.451773
v 273.528612 572.260918 -112.527431
v 1.803599 385.569850 7.929029
v -6.651915 373.731920 5.674236
v -14.684624 385.569850 2.432981
v -5.721842 402.120275 2.369141
v -86.712133 597.185359 245.620156
v -17.260579 294.234340 -8.857220
v -15.082252 280.169519 -16.865853
v -12.044361 294.234340 -24.506034
v -14.222686 308.299068 -16.497479
v -346.971829 449.235722 -127.688747
v -17.490921 119.948074 -17.898117
v 14.307545 305.522177 -16.533790
v -5.365310 310.766254 3.699273
v -6.437494 453.013175 -5.467893
v 5.840895 450.869830 -11.611910
v -42.944281 469.021453 128.280090
v -47.499044 465.535399 128.246834
v -51.153923 469.045200 125.537548
v -47.188549 474.350216 127.362643
v -42.987494 471.404065 126.453041
v -50.004726 471.425157 124.095578
v -49.722933 466.374256 125.911492
v -44.314570 466.360606 127.713448
v -144.435152 384.310313 -55.786485
v -144.478598 381.514200 -60.006361
v -141.906485 384.328750 -63.352708
v -144.450130 389.530998 -59.989186
v -140.358092 386.410277 -62.767171
v -142.862282 386.390681 -55.318352
v -142.592574 382.013490 -62.054577
v -144.200578 382.004851 -57.233869
v 139.757418 442.561371 -57.032073
v 139.488018 439.454001 -61.225518
v 138.420852 448.083216 -60.995647
v 136.843990 442.638709 -64.927849
v 137.592897 439.852655 -63.200796
v 137.880724 444.735718 -56.696088
v 134.882984 444.952884 -63.664853
v 139.306539 440.033583 -58.506668
v -37.178128 517.340753 -10.836340
v -35.455310 519.819925 -10.836340
v 52.282186 534.051799 -13.734161
v 54.122329 531.346411 -13.816667
v 14.992218 119.948074 4.590210
v -4.661814 -10.034985 -50.383059
v 32.988135 -12.412675 -42.515284
v 44.840267 -12.412675 -6.958802
v 37.057898 -9.733274 28.756886
v -7.901423 -9.733274 43.743380
v -29.156475 -9.733274 31.390721
v -42.286273 -10.034985 -12.758600
v 39.985603 -16.051875 90.712491
v 25.978904 -16.051875 95.381362
v 37.057898 -9.733274 28.756886
v 65.776434 -18.820052 -45.802651
v 72.325140 -18.820052 -26.156543
v -31.502794 -10.976118 -75.426792
v -57.583182 -11.413979 -65.980426
v -66.677645 -11.479466 -40.822033
v 6.754576 365.366356 0.018744
v 11.917700 318.092868 2.002727
v 4.917488 450.869830 -6.994643
v -53.923988 446.637403 -168.349766
v 54.063354 395.288594 147.534921
v 12.378226 296.995693 2.585993
v -6.389888 350.659612 -23.827243
v -14.953632 363.280022 -20.371724
v 0.370884 353.814757 -25.930591
v -5.475971 383.882003 -20.919698
v -5.475971 383.882003 -20.919698
v 0.365237 318.092868 5.853521
v 12.378226 296.995693 2.585993
v 11.917700 318.092868 2.002727
v 0.457390 296.995693 6.559605
v 138.420852 448.083216 -60.995647
v -47.188549 474.350216 127.362643
v -144.450130 389.530998 -59.989186
v 1.803599 385.569850 7.929029
v -5.721842 402.120275 2.369141
v -5.721842 402.120275 2.369141
v -14.684624 385.569850 2.432981
v -6.651915 373.731920 5.674236
v -9.268259 305.152562 -23.514630
v -16.255530 304.782853 -10.767246
v -12.988000 283.685753 -22.780234
v -16.961613 283.685753 -10.859398
v 11.512935 338.927160 -22.303394
v 12.333288 369.919613 -9.005291
v 8.622721 371.257460 -19.946097
v 15.926212 340.504723 -8.838162
v 2.624501 363.280022 -26.231047
v -1.640784 460.469464 -14.037440
v -6.437494 453.013175 -15.663245
v -8.072709 451.190623 -13.836117
v -8.072709 451.190623 -7.295021
v -6.437494 453.013175 -5.467893
v -1.640784 460.469464 -7.339410
v -35.455310 519.819925 -10.836340
v -1.640784 461.954880 -10.688425
v -1.640784 461.954880 -10.688425
v -1.640784 460.469464 -7.339410
v 5.840895 450.869830 -11.611910
v 4.917488 450.869830 -6.994643
v 4.917488 450.869830 -14.382209
v -1.640784 460.469464 -14.037440
v 52.282186 534.051799 -13.734161
v -1.640784 461.954880 -10.688425
v 13.822862 337.349672 -15.598934
v 10.367343 349.970082 -24.162677
v -0.029489 381.206533 -22.862662
v -11.018057 381.206533 -19.199780
v -12.044361 294.234340 -24.506034
v -15.082252 280.169519 -16.865853
v -17.260579 294.234340 -8.857220
v -14.222686 308.299068 -16.497479
v -14.222686 308.299068 -16.497479
v -9.162931 451.190623 -10.565608
v -10.920336 399.610587 0.755807
v -12.887848 376.691384 3.454657
v -0.310260 376.691384 7.647161
v -0.613068 399.610587 4.191563
v -1.544788 307.544280 6.858571
v 6.463845 293.479553 4.680245
v 14.104026 307.544280 1.642352
v 6.095471 321.609008 3.820679
v 6.095471 321.609008 3.820679
v -13.038038 353.814757 -21.460926
v 10.390401 372.595195 -14.451773
v 10.390401 372.595195 -14.451773
v 16.226747 349.970082 -6.584545
v 19.647209 35.579127 21.881455
v 49.379580 388.384774 147.893569
v 58.045201 388.404370 144.996540
v 54.063354 395.288594 147.534921
v 49.231506 390.523332 146.030525
v 57.028544 390.541994 143.412058
v 54.063354 395.288594 147.534921
v 139.757418 442.561371 -57.032073
v 136.843990 442.638709 -64.927849
v -144.435152 384.310313 -55.786485
v -141.906485 384.328750 -63.352708
v -144.450130 389.530998 -59.989186
v -140.358092 386.410277 -62.767171
v -142.862282 386.390681 -55.318352
v -144.450130 389.530998 -59.989186
v 138.420852 448.083216 -60.995647
v 137.880724 444.735718 -56.696088
v 134.882984 444.952884 -63.664853
v 138.420852 448.083216 -60.995647
v 54.122329 531.346411 -13.816667
v 83.156071 432.970077 319.621769
v -37.178128 517.340753 -10.836340
vt 0.862891 0.360477
vt 0.879767 0.380460
vt 0.874001 0.371898
vt 0.873714 0.294142
vt 0.860147 0.316531
vt 0.869197 0.303451
vt 0.553636 0.122014
vt 0.532759 0.100374
vt 0.540190 0.111163
vt 0.533130 0.194241
vt 0.553508 0.170580
vt 0.538600 0.183436
vt 0.849668 0.650927
vt 0.824681 0.680050
vt 0.841899 0.664155
vt 0.826336 0.738273
vt 0.853331 0.764902
vt 0.844547 0.752583
vt 0.365480 0.857347
vt 0.511165 0.865815
vt 0.507838 0.896918
vt 0.255670 0.295730
vt 0.247469 0.527738
vt 0.233137 0.534486
vt 0.261243 0.536200
vt 0.272805 0.297895
vt 0.290707 0.561356
vt 0.305547 0.296996
vt 0.320227 0.569062
vt 0.337738 0.301429
vt 0.353503 0.304308
vt 0.380663 0.142818
vt 0.413485 0.155738
vt 0.497584 0.039976
vt 0.491400 0.140609
vt 0.319532 0.623517
vt 0.301846 0.770537
vt 0.286758 0.760005
vt 0.335254 0.749303
vt 0.335171 0.633380
vt 0.351624 0.624785
vt 0.278336 0.829780
vt 0.290851 0.790811
vt 0.227621 0.995413
vt 0.253663 0.975803
vt 0.095063 0.722557
vt 0.146532 0.957527
vt 0.133426 0.958653
vt 0.124395 0.733542
vt 0.126251 0.686445
vt 0.367110 0.846989
vt 0.365480 0.857347
vt 0.509012 0.853284
vt 0.497041 0.916464
vt 0.494700 0.928210
vt 0.504211 0.906886
vt 0.489706 0.937572
vt 0.468362 0.960715
vt 0.358807 0.865429
vt 0.457550 0.967433
vt 0.308739 0.959905
vt 0.436648 0.989505
vt 0.311908 0.972237
vt 0.433995 0.978443
vt 0.299101 0.920647
vt 0.433995 0.978443
vt 0.312305 0.897740
vt 0.350442 0.884335
vt 0.308092 0.906973
vt 0.444733 0.974691
vt 0.362239 0.879544
vt 0.570136 0.145923
vt 0.981648 0.117420
vt 0.989651 0.145155
vt 0.985728 0.171870
vt 0.568791 0.157625
vt 0.553508 0.170580
vt 0.519597 0.147811
vt 0.553636 0.122014
vt 0.532759 0.100374
vt 0.533130 0.194241
vt 0.802778 0.710080
vt 0.394776 0.752495
vt 0.385151 0.727393
vt 0.393238 0.701525
vt 0.808210 0.696270
vt 0.824681 0.680050
vt 0.861079 0.707851
vt 0.826336 0.738273
vt 0.853331 0.764902
vt 0.849668 0.650927
vt 0.446001 0.641088
vt 0.841899 0.664155
vt 0.456228 0.617019
vt 0.446826 0.815589
vt 0.467168 0.842799
vt 0.844547 0.752583
vt 0.862891 0.360477
vt 0.894042 0.336073
vt 0.879767 0.380460
vt 0.848156 0.339537
vt 0.851618 0.349136
vt 0.412413 0.395587
vt 0.437112 0.426566
vt 0.462418 0.457201
vt 0.860147 0.316531
vt 0.428955 0.310386
vt 0.449741 0.276471
vt 0.408818 0.344462
vt 0.850956 0.329523
vt 0.894042 0.336073
vt 0.873714 0.294142
vt 0.869197 0.303451
vt 0.458204 0.251943
vt 0.474215 0.480242
vt 0.874001 0.371898
vt 0.909312 0.032204
vt 0.898504 0.011280
vt 0.540190 0.111163
vt 0.905657 0.264086
vt 0.538600 0.183436
vt 0.898010 0.284572
vt 0.346828 0.570931
vt 0.334095 0.562468
vt 0.369662 0.306244
vt 0.202209 0.556159
vt 0.229652 0.558296
vt 0.221776 0.583770
vt 0.207220 0.300914
vt 0.239664 0.296598
vt 0.245420 0.142228
vt 0.262799 0.559337
vt 0.255708 0.584149
vt 0.231839 0.737745
vt 0.240766 0.592059
vt 0.265119 0.788000
vt 0.253166 0.825135
vt 0.269856 0.764727
vt 0.305499 0.604019
vt 0.317822 0.595858
vt 0.106834 0.166770
vt 0.039852 0.174914
vt 0.004124 0.113386
vt 0.110659 0.301312
vt 0.142759 0.302576
vt 0.114703 0.558608
vt 0.143847 0.553297
vt 0.111920 0.581556
vt 0.106318 0.607289
vt 0.267960 0.090792
vt 0.249884 0.040550
vt 0.280569 0.055616
vt 0.229806 0.041351
vt 0.244832 0.106556
vt 0.218680 0.101692
vt 0.205354 0.140182
vt 0.147537 0.162362
vt 0.175015 0.303000
vt 0.196809 0.066188
vt 0.213069 0.050358
vt 0.150242 0.059636
vt 0.107147 0.037113
vt 0.078356 0.045059
vt 0.048976 0.084521
vt 0.286248 0.129278
vt 0.348281 0.126711
vt 0.347644 0.054115
vt 0.383538 0.057038
vt 0.478700 0.025400
vt 0.172811 0.554606
vt 0.162914 0.659174
vt 0.155913 0.580498
vt 0.147396 0.655675
vt 0.130391 0.663314
vt 0.201407 0.690579
vt 0.185114 0.696178
vt 0.215645 0.700279
vt 0.214081 0.722389
vt 0.210284 0.768641
vt 0.213249 0.963792
vt 0.263574 0.834307
vt 0.219621 0.970846
vt 0.155814 0.736824
vt 0.171687 0.984652
vt 0.154690 0.957210
vt 0.140389 0.740764
vt 0.178027 0.717390
vt 0.163002 0.684781
vt 0.179751 0.765162
vt 0.194495 0.774368
vt 0.186693 0.964771
vt 0.194145 0.960588
vt 0.525019 0.533835
vt 0.519932 0.526608
vt 0.905143 0.381696
vt 0.513320 0.562050
vt 0.533077 0.542098
vt 0.541073 0.550397
vt 0.957767 0.455650
vt 0.980976 0.482680
vt 0.530969 0.586987
vt 0.934866 0.652222
vt 0.527488 0.595146
vt 0.537058 0.577158
vt 0.543027 0.567323
vt 0.970427 0.568813
vt 0.987163 0.537403
vt 0.916758 0.402031
vt 0.568513 0.939445
vt 0.921865 0.992348
vt 0.563058 0.950928
vt 0.547663 0.906588
vt 0.579367 0.927376
vt 0.590199 0.915242
vt 0.957679 0.925621
vt 0.978354 0.899152
vt 0.563238 0.870954
vt 0.556046 0.860424
vt 0.904237 0.764960
vt 0.575971 0.881233
vt 0.588697 0.891505
vt 0.949853 0.825047
vt 0.974372 0.847948
vt 0.957011 0.201979
vt 0.942016 0.629863
vt 0.807455 0.723709
vt 0.423278 0.780832
vt 0.419216 0.670810
vt 0.203721 0.962085
vt 0.915013 0.784156
vt 0.593102 0.903075
vt 0.983859 0.872934
vt 0.929491 0.971758
vt 0.403209 0.370512
vt 0.544230 0.558622
vt 0.990630 0.509330
vt 0.566854 0.133540
vt 0.957248 0.090961
vt 0.000000 0.000000
vt 0.000000 0.000000
vt 0.000000 0.000000
vt 0.000000 0.000000
vt 0.000000 0.000000
vt 0.000000 0.000000
vt 0.000000 0.000000
vt 0.000000 0.000000
vt 0.000000 0.000000
vt 0.000000 0.000000
vt 0.000000 0.000000
vt 0.000000 0.000000
vt 0.000000 0.000000
vt 0.000000 0.000000
vn -0.865814 -0.051501 0.497708
vn -0.726583 0.683784 0.067198
vn -0.830788 0.493393 0.257596
vn 0.653321 0.684622 -0.323210
vn 0.997247 -0.037102 -0.064203
vn 0.815995 0.497297 -0.294698
vn 0.600796 -0.025500 0.798995
vn -0.009300 0.742919 0.669317
vn 0.289197 0.548294 0.784691
vn -0.455383 0.774771 -0.438584
vn -0.067700 -0.020200 -0.997501
vn -0.316209 0.583117 -0.748322
vn -0.038199 0.752678 0.657280
vn -0.574417 -0.046801 0.817224
vn -0.277495 0.534691 0.798187
vn 0.015200 -0.069299 -0.997480
vn 0.359192 0.798683 -0.482790
vn 0.249688 0.539574 -0.804062
vn -0.956109 -0.293003 -0.002400
vn 0.374017 0.264712 -0.888841
vn -0.261702 -0.052700 -0.963709
vn -0.947528 0.048901 -0.315909
vn -0.948557 0.016299 -0.316186
vn -0.618231 -0.015701 -0.785840
vn -0.999725 -0.012900 0.019600
vn -0.948557 0.016299 -0.316186
vn -0.947528 0.048901 -0.315909
vn -0.996240 0.076903 0.039902
vn -0.999725 -0.012900 0.019600
vn -0.947528 0.048901 -0.315909
vn -0.736496 0.033800 0.675597
vn -0.999725 -0.012900 0.019600
vn -0.996240 0.076903 0.039902
vn -0.591188 0.101798 0.800084
vn -0.736496 0.033800 0.675597
vn -0.996240 0.076903 0.039902
vn -0.067302 -0.004000 0.997725
vn -0.736496 0.033800 0.675597
vn -0.591188 0.101798 0.800084
vn 0.000000 0.118199 0.992990
vn -0.067302 -0.004000 0.997725
vn -0.591188 0.101798 0.800084
vn 0.314706 0.098002 0.944117
vn -0.067302 -0.004000 0.997725
vn 0.000000 0.118199 0.992990
vn -0.128906 0.445721 0.885842
vn 0.314706 0.098002 0.944117
vn 0.000000 0.118199 0.992990
vn 0.516787 0.471188 0.714782
vn 0.314706 0.098002 0.944117
vn -0.128906 0.445721 0.885842
vn 0.498591 0.757686 0.421092
vn 0.516787 0.471188 0.714782
vn -0.128906 0.445721 0.885842
vn 0.933838 0.357614 -0.007700
vn 0.516787 0.471188 0.714782
vn 0.498591 0.757686 0.421092
vn -0.120900 0.059100 0.990904
vn 0.387809 -0.079302 0.918322
vn -0.268505 -0.029801 0.962817
vn 0.605816 0.058902 0.793421
vn 0.387809 -0.079302 0.918322
vn -0.120900 0.059100 0.990904
vn 0.314587 0.077497 0.946060
vn 0.605816 0.058902 0.793421
vn -0.120900 0.059100 0.990904
vn 0.338905 0.076401 0.937713
vn 0.605816 0.058902 0.793421
vn 0.314587 0.077497 0.946060
vn 0.605816 0.058902 0.793421
vn 0.683384 0.213695 0.698084
vn 0.866781 0.017300 0.498389
vn 0.222595 0.146897 0.963780
vn 0.683384 0.213695 0.698084
vn 0.605816 0.058902 0.793421
vn 0.069303 0.083003 0.994137
vn 0.222595 0.146897 0.963780
vn 0.605816 0.058902 0.793421
vn 0.793809 0.048801 0.606207
vn 0.996790 0.068699 -0.041100
vn 0.979902 0.037100 0.196000
vn 0.940879 0.137697 0.309493
vn 0.996790 0.068699 -0.041100
vn 0.793809 0.048801 0.606207
vn 0.567185 -0.004300 0.823579
vn 0.940879 0.137697 0.309493
vn 0.793809 0.048801 0.606207
vn 0.517289 0.337193 -0.786583
vn 0.374017 0.264712 -0.888841
vn -0.956109 -0.293003 -0.002400
vn 0.842805 0.492003 -0.218201
vn 0.374017 0.264712 -0.888841
vn 0.517289 0.337193 -0.786583
vn -0.956109 -0.293003 -0.002400
vn -0.920813 -0.390005 0.000300
vn -0.773894 -0.310998 0.551696
vn -0.771877 -0.314591 -0.552484
vn -0.920813 -0.390005 0.000300
vn -0.956109 -0.293003 -0.002400
vn -0.261702 -0.052700 -0.963709
vn -0.771877 -0.314591 -0.552484
vn -0.956109 -0.293003 -0.002400
vn -0.956109 -0.293003 -0.002400
vn -0.773894 -0.310998 0.551696
vn -0.253894 -0.040699 0.966376
vn 0.379484 0.272488 0.884162
vn -0.956109 -0.293003 -0.002400
vn -0.253894 -0.040699 0.966376
vn 0.514701 0.339701 0.787202
vn -0.956109 -0.293003 -0.002400
vn 0.379484 0.272488 0.884162
vn 0.842255 0.492774 0.218588
vn 0.514701 0.339701 0.787202
vn 0.379484 0.272488 0.884162
vn -0.265498 0.275898 0.923792
vn -0.440504 0.392903 0.807207
vn -0.768015 0.585411 0.259705
vn 0.892217 -0.448109 -0.056101
vn -0.440504 0.392903 0.807207
vn -0.265498 0.275898 0.923792
vn 0.578486 -0.288993 0.762782
vn 0.892217 -0.448109 -0.056101
vn -0.265498 0.275898 0.923792
vn 0.892217 -0.448109 -0.056101
vn 0.506414 -0.304008 -0.806922
vn -0.331612 0.246909 -0.910533
vn 0.855629 -0.514817 -0.053502
vn 0.506414 -0.304008 -0.806922
vn 0.892217 -0.448109 -0.056101
vn 0.578420 -0.289010 0.762826
vn 0.855629 -0.514817 -0.053502
vn 0.892217 -0.448109 -0.056101
vn -0.499216 0.369112 -0.783926
vn -0.331612 0.246909 -0.910533
vn -0.779685 0.572389 -0.253895
vn 0.892217 -0.448109 -0.056101
vn -0.331612 0.246909 -0.910533
vn -0.499216 0.369112 -0.783926
vn 0.708489 -0.671790 -0.216197
vn 0.658181 -0.578183 0.482186
vn 0.601819 -0.790725 -0.112104
vn 0.238493 -0.609482 -0.756077
vn 0.708489 -0.671790 -0.216197
vn 0.601819 -0.790725 -0.112104
vn 0.424822 -0.522827 -0.739039
vn 0.708489 -0.671790 -0.216197
vn 0.238493 -0.609482 -0.756077
vn -0.067700 -0.020200 -0.997501
vn 0.424822 -0.522827 -0.739039
vn 0.238493 -0.609482 -0.756077
vn 0.708489 -0.671790 -0.216197
vn 0.424822 -0.522827 -0.739039
vn -0.067700 -0.020200 -0.997501
vn 0.876179 -0.479489 -0.048999
vn 0.708489 -0.671790 -0.216197
vn -0.067700 -0.020200 -0.997501
vn 0.600796 -0.025500 0.798995
vn 0.708489 -0.671790 -0.216197
vn 0.876179 -0.479489 -0.048999
vn -0.009300 0.742919 0.669317
vn 0.600796 -0.025500 0.798995
vn 0.876179 -0.479489 -0.048999
vn -0.067700 -0.020200 -0.997501
vn -0.455383 0.774771 -0.438584
vn 0.876179 -0.479489 -0.048999
vn -0.642403 -0.735503 -0.215301
vn -0.187908 -0.569625 -0.800136
vn -0.565682 -0.802674 -0.188994
vn -0.630883 -0.571385 0.524886
vn -0.642403 -0.735503 -0.215301
vn -0.565682 -0.802674 -0.188994
vn -0.793995 -0.497697 0.349098
vn -0.642403 -0.735503 -0.215301
vn -0.630883 -0.571385 0.524886
vn -0.574484 -0.046799 0.817177
vn -0.793995 -0.497697 0.349098
vn -0.630883 -0.571385 0.524886
vn -0.642403 -0.735503 -0.215301
vn -0.793995 -0.497697 0.349098
vn -0.574484 -0.046799 0.817177
vn -0.358984 -0.877360 -0.318386
vn -0.642403 -0.735503 -0.215301
vn -0.574484 -0.046799 0.817177
vn 0.015300 -0.069398 -0.997472
vn -0.642403 -0.735503 -0.215301
vn -0.358984 -0.877360 -0.318386
vn 0.359210 0.798722 -0.482713
vn 0.015300 -0.069398 -0.997472
vn -0.358984 -0.877360 -0.318386
vn -0.038201 0.752727 0.657224
vn -0.358984 -0.877360 -0.318386
vn -0.574484 -0.046799 0.817177
vn 0.039701 0.528808 0.847813
vn -0.277495 0.534691 0.798187
vn -0.574484 -0.046799 0.817177
vn -0.038199 0.752678 0.657280
vn -0.277495 0.534691 0.798187
vn 0.039701 0.528808 0.847813
vn 0.287402 0.767506 0.573005
vn -0.038199 0.752678 0.657280
vn 0.039701 0.528808 0.847813
vn 0.533591 0.547291 -0.644789
vn 0.359192 0.798683 -0.482790
vn 0.530602 0.847603 -0.005500
vn 0.249688 0.539574 -0.804062
vn 0.359192 0.798683 -0.482790
vn 0.533591 0.547291 -0.644789
vn 0.015300 -0.069398 -0.997472
vn 0.249688 0.539574 -0.804062
vn 0.533591 0.547291 -0.644789
vn -0.865814 -0.051501 0.497708
vn 0.305602 -0.883706 0.354502
vn -0.726583 0.683784 0.067198
vn 0.197203 -0.795613 0.572809
vn 0.305602 -0.883706 0.354502
vn -0.865814 -0.051501 0.497708
vn -0.442709 -0.529110 0.723914
vn 0.197203 -0.795613 0.572809
vn -0.865814 -0.051501 0.497708
vn -0.572612 -0.586712 0.572612
vn 0.197203 -0.795613 0.572809
vn -0.442709 -0.529110 0.723914
vn -0.865814 -0.051501 0.497708
vn -0.572612 -0.586712 0.572612
vn -0.442709 -0.529110 0.723914
vn -0.941873 0.007300 0.335890
vn -0.572612 -0.586712 0.572612
vn -0.865814 -0.051501 0.497708
vn -0.859008 0.510805 0.034400
vn -0.941873 0.007300 0.335890
vn -0.865814 -0.051501 0.497708
vn 0.997247 -0.037102 -0.064203
vn 0.954043 0.012401 -0.299413
vn 0.704732 0.513823 -0.489222
vn 0.803389 -0.584692 0.112698
vn 0.954043 0.012401 -0.299413
vn 0.997247 -0.037102 -0.064203
vn 0.790099 -0.527399 0.312400
vn 0.803389 -0.584692 0.112698
vn 0.997247 -0.037102 -0.064203
vn 0.197203 -0.795613 0.572809
vn 0.803389 -0.584692 0.112698
vn 0.790099 -0.527399 0.312400
vn 0.997247 -0.037102 -0.064203
vn 0.197203 -0.795613 0.572809
vn 0.790099 -0.527399 0.312400
vn 0.305602 -0.883706 0.354502
vn 0.197203 -0.795613 0.572809
vn 0.997247 -0.037102 -0.064203
vn 0.653297 0.684697 -0.323099
vn 0.305602 -0.883706 0.354502
vn 0.997247 -0.037102 -0.064203
vn 0.704732 0.513823 -0.489222
vn 0.815995 0.497297 -0.294698
vn 0.997247 -0.037102 -0.064203
vn 0.653321 0.684622 -0.323210
vn 0.815995 0.497297 -0.294698
vn 0.704732 0.513823 -0.489222
vn 0.319790 0.795574 -0.514583
vn 0.653321 0.684622 -0.323210
vn 0.704732 0.513823 -0.489222
vn -0.859008 0.510805 0.034400
vn -0.726583 0.683784 0.067198
vn -0.565599 0.795098 -0.218900
vn -0.830809 0.493405 0.257503
vn -0.726583 0.683784 0.067198
vn -0.859008 0.510805 0.034400
vn -0.865814 -0.051501 0.497708
vn -0.830809 0.493405 0.257503
vn -0.859008 0.510805 0.034400
vn 0.005100 0.530909 0.847414
vn -0.009200 0.742920 0.669318
vn -0.295313 0.811635 0.504022
vn 0.289197 0.548294 0.784691
vn -0.009200 0.742920 0.669318
vn 0.005100 0.530909 0.847414
vn 0.600796 -0.025500 0.798995
vn 0.289197 0.548294 0.784691
vn 0.005100 0.530909 0.847414
vn -0.547801 0.575201 -0.607501
vn -0.316101 0.583202 -0.748302
vn -0.067700 -0.020200 -0.997501
vn -0.455383 0.774771 -0.438584
vn -0.316101 0.583202 -0.748302
vn -0.547801 0.575201 -0.607501
vn -0.518495 0.854092 -0.041100
vn -0.455383 0.774771 -0.438584
vn -0.547801 0.575201 -0.607501
vn 0.314706 0.098002 0.944117
vn 0.320987 0.015199 0.946962
vn 0.316192 0.015000 0.948577
vn 0.314215 0.111805 0.942745
vn 0.320987 0.015199 0.946962
vn 0.314706 0.098002 0.944117
vn 0.516787 0.471188 0.714782
vn 0.314215 0.111805 0.942745
vn 0.314706 0.098002 0.944117
vn 0.314706 0.098002 0.944117
vn 0.316192 0.015000 0.948577
vn -0.067302 -0.004000 0.997725
vn 0.023600 0.015200 -0.999606
vn -0.214198 0.001200 -0.976790
vn -0.579619 0.032801 -0.814227
vn -0.618231 -0.015701 -0.785840
vn -0.214198 0.001200 -0.976790
vn 0.023600 0.015200 -0.999606
vn -0.074199 0.068499 -0.994888
vn -0.618231 -0.015701 -0.785840
vn 0.023600 0.015200 -0.999606
vn -0.705272 0.068997 -0.705572
vn -0.618231 -0.015701 -0.785840
vn -0.074199 0.068499 -0.994888
vn -0.674995 0.382397 -0.630995
vn -0.705272 0.068997 -0.705572
vn -0.074199 0.068499 -0.994888
vn -0.947528 0.048901 -0.315909
vn -0.705272 0.068997 -0.705572
vn -0.674995 0.382397 -0.630995
vn -0.996240 0.076903 0.039902
vn -0.947528 0.048901 -0.315909
vn -0.674995 0.382397 -0.630995
vn -0.736496 0.033800 0.675597
vn -0.919342 0.028601 0.392418
vn -0.999725 -0.012900 0.019600
vn -0.984693 0.098199 0.143999
vn -0.919342 0.028601 0.392418
vn -0.736496 0.033800 0.675597
vn -0.999781 0.019600 -0.007400
vn -0.984693 0.098199 0.143999
vn -0.736496 0.033800 0.675597
vn -0.888024 0.057302 -0.456212
vn -0.984693 0.098199 0.143999
vn -0.999781 0.019600 -0.007400
vn -0.579619 0.032801 -0.814227
vn -0.888024 0.057302 -0.456212
vn -0.999781 0.019600 -0.007400
vn -0.999781 0.019600 -0.007400
vn -0.986053 0.003600 -0.166392
vn -0.959508 0.174901 0.220802
vn -0.922620 -0.084202 0.376408
vn -0.986053 0.003600 -0.166392
vn -0.999781 0.019600 -0.007400
vn -0.736496 0.033800 0.675597
vn -0.922620 -0.084202 0.376408
vn -0.999781 0.019600 -0.007400
vn -0.268505 -0.029801 0.962817
vn -0.922620 -0.084202 0.376408
vn -0.736496 0.033800 0.675597
vn -0.318908 0.022301 0.947523
vn -0.268505 -0.029801 0.962817
vn -0.736496 0.033800 0.675597
vn -0.120900 0.059100 0.990904
vn -0.268505 -0.029801 0.962817
vn -0.318908 0.022301 0.947523
vn -0.736496 0.033800 0.675597
vn -0.120900 0.059100 0.990904
vn -0.318908 0.022301 0.947523
vn -0.440608 0.048001 0.896416
vn -0.120900 0.059100 0.990904
vn -0.736496 0.033800 0.675597
vn -0.067302 -0.004000 0.997725
vn -0.440608 0.048001 0.896416
vn -0.736496 0.033800 0.675597
vn 0.941875 0.308692 0.132596
vn 0.807912 0.264904 0.526408
vn 0.890364 0.259590 0.373985
vn 0.913723 0.130503 0.384810
vn 0.807912 0.264904 0.526408
vn 0.941875 0.308692 0.132596
vn 0.996068 0.088597 -0.000200
vn 0.913723 0.130503 0.384810
vn 0.941875 0.308692 0.132596
vn 0.945475 -0.029099 0.324392
vn 0.913723 0.130503 0.384810
vn 0.996068 0.088597 -0.000200
vn 0.999604 0.027400 0.006500
vn 0.945475 -0.029099 0.324392
vn 0.996068 0.088597 -0.000200
vn 0.984596 0.041700 0.169799
vn 0.945475 -0.029099 0.324392
vn 0.999604 0.027400 0.006500
vn 0.945645 0.110694 0.305782
vn 0.984596 0.041700 0.169799
vn 0.999604 0.027400 0.006500
vn -0.788301 0.611900 0.064500
vn -0.697947 0.678646 0.228715
vn -0.863909 0.303403 0.402004
vn -0.388102 0.828104 -0.404502
vn -0.697947 0.678646 0.228715
vn -0.788301 0.611900 0.064500
vn -0.445085 0.742776 -0.500184
vn -0.388102 0.828104 -0.404502
vn -0.788301 0.611900 0.064500
vn 0.101898 0.617190 -0.780188
vn -0.388102 0.828104 -0.404502
vn -0.445085 0.742776 -0.500184
vn -0.674995 0.382397 -0.630995
vn 0.101898 0.617190 -0.780188
vn -0.445085 0.742776 -0.500184
vn 0.020501 0.289608 -0.956926
vn 0.101898 0.617190 -0.780188
vn -0.674995 0.382397 -0.630995
vn -0.074199 0.068499 -0.994888
vn 0.020501 0.289608 -0.956926
vn -0.674995 0.382397 -0.630995
vn 0.364904 0.263403 -0.893009
vn 0.020501 0.289608 -0.956926
vn -0.074199 0.068499 -0.994888
vn 0.690709 0.110701 -0.714609
vn 0.364904 0.263403 -0.893009
vn -0.074199 0.068499 -0.994888
vn 0.941875 0.308692 0.132596
vn 0.364904 0.263403 -0.893009
vn 0.690709 0.110701 -0.714609
vn 0.996068 0.088597 -0.000200
vn 0.941875 0.308692 0.132596
vn 0.690709 0.110701 -0.714609
vn 0.316803 0.318803 -0.893309
vn 0.020501 0.289608 -0.956926
vn 0.364904 0.263403 -0.893009
vn 0.101898 0.617190 -0.780188
vn 0.020501 0.289608 -0.956926
vn 0.316803 0.318803 -0.893309
vn 0.234799 0.711498 -0.662299
vn 0.101898 0.617190 -0.780188
vn 0.316803 0.318803 -0.893309
vn -0.388102 0.828104 -0.404502
vn 0.101898 0.617190 -0.780188
vn 0.234799 0.711498 -0.662299
vn 0.364904 0.263403 -0.893009
vn 0.074603 0.184807 -0.979939
vn 0.316803 0.318803 -0.893309
vn 0.602515 0.490212 -0.629816
vn 0.074603 0.184807 -0.979939
vn 0.364904 0.263403 -0.893009
vn 0.941875 0.308692 0.132596
vn 0.602515 0.490212 -0.629816
vn 0.364904 0.263403 -0.893009
vn 0.859803 0.392101 0.327101
vn 0.602515 0.490212 -0.629816
vn 0.941875 0.308692 0.132596
vn 0.833293 0.132999 0.536595
vn 0.859803 0.392101 0.327101
vn 0.941875 0.308692 0.132596
vn 0.890364 0.259590 0.373985
vn 0.833293 0.132999 0.536595
vn 0.941875 0.308692 0.132596
vn -0.788301 0.611900 0.064500
vn -0.674995 0.382397 -0.630995
vn -0.445085 0.742776 -0.500184
vn -0.951885 0.289195 0.101398
vn -0.674995 0.382397 -0.630995
vn -0.788301 0.611900 0.064500
vn -0.863909 0.303403 0.402004
vn -0.951885 0.289195 0.101398
vn -0.788301 0.611900 0.064500
vn -0.770575 0.255992 0.583681
vn -0.951885 0.289195 0.101398
vn -0.863909 0.303403 0.402004
vn -0.741425 0.337611 0.579920
vn -0.770575 0.255992 0.583681
vn -0.863909 0.303403 0.402004
vn -0.569288 0.342093 0.747585
vn -0.770575 0.255992 0.583681
vn -0.741425 0.337611 0.579920
vn -0.128906 0.445721 0.885842
vn -0.349612 0.671424 0.653423
vn 0.498591 0.757686 0.421092
vn -0.569288 0.342093 0.747585
vn -0.349612 0.671424 0.653423
vn -0.128906 0.445721 0.885842
vn -0.770575 0.255992 0.583681
vn -0.569288 0.342093 0.747585
vn -0.128906 0.445721 0.885842
vn 0.023600 0.015200 -0.999606
vn 0.690709 0.110701 -0.714609
vn -0.074199 0.068499 -0.994888
vn 0.814599 0.024700 -0.579499
vn 0.690709 0.110701 -0.714609
vn 0.023600 0.015200 -0.999606
vn 0.519892 -0.030500 -0.853687
vn 0.814599 0.024700 -0.579499
vn 0.023600 0.015200 -0.999606
vn 0.948737 0.027001 -0.314912
vn 0.814599 0.024700 -0.579499
vn 0.519892 -0.030500 -0.853687
vn 0.949194 0.023700 -0.313798
vn 0.948737 0.027001 -0.314912
vn 0.519892 -0.030500 -0.853687
vn 0.956542 -0.014901 0.291213
vn 0.948737 0.027001 -0.314912
vn 0.949194 0.023700 -0.313798
vn 0.999604 0.027400 0.006500
vn 0.814599 0.024700 -0.579499
vn 0.948737 0.027001 -0.314912
vn 0.956542 -0.014901 0.291213
vn 0.999604 0.027400 0.006500
vn 0.948737 0.027001 -0.314912
vn 0.945645 0.110694 0.305782
vn 0.999604 0.027400 0.006500
vn 0.956542 -0.014901 0.291213
vn 0.793809 0.048801 0.606207
vn 0.945645 0.110694 0.305782
vn 0.956542 -0.014901 0.291213
vn -0.579619 0.032801 -0.814227
vn -0.315899 0.013500 -0.948697
vn -0.027800 -0.007800 -0.999583
vn -0.985707 -0.137101 -0.097901
vn -0.315899 0.013500 -0.948697
vn -0.579619 0.032801 -0.814227
vn -0.999781 0.019600 -0.007400
vn -0.985707 -0.137101 -0.097901
vn -0.579619 0.032801 -0.814227
vn -0.931412 -0.016200 0.363605
vn -0.985707 -0.137101 -0.097901
vn -0.999781 0.019600 -0.007400
vn -0.934954 0.134908 -0.328119
vn -0.931412 -0.016200 0.363605
vn -0.999781 0.019600 -0.007400
vn 0.605816 0.058902 0.793421
vn 0.866781 0.017300 0.498389
vn 0.387809 -0.079302 0.918322
vn -0.857868 0.089697 0.505981
vn -0.999781 0.019600 -0.007400
vn -0.959508 0.174901 0.220802
vn -0.336601 0.154400 0.928903
vn -0.857868 0.089697 0.505981
vn -0.959508 0.174901 0.220802
vn -0.368196 0.136398 0.919689
vn -0.857868 0.089697 0.505981
vn -0.336601 0.154400 0.928903
vn 0.222595 0.146897 0.963780
vn -0.368196 0.136398 0.919689
vn -0.336601 0.154400 0.928903
vn 0.637225 0.137405 -0.758330
vn 0.103895 0.092795 -0.990250
vn 0.604110 0.083501 -0.792514
vn 0.996790 0.068699 -0.041100
vn 0.637225 0.137405 -0.758330
vn 0.604110 0.083501 -0.792514
vn 0.947367 0.066398 -0.313189
vn 0.637225 0.137405 -0.758330
vn 0.996790 0.068699 -0.041100
vn 0.940879 0.137697 0.309493
vn 0.947367 0.066398 -0.313189
vn 0.996790 0.068699 -0.041100
vn 0.338910 0.049301 -0.939526
vn 0.288890 0.019299 -0.957168
vn 0.519892 -0.030500 -0.853687
vn 0.637225 0.137405 -0.758330
vn 0.288890 0.019299 -0.957168
vn 0.338910 0.049301 -0.939526
vn 0.243511 0.158607 -0.956842
vn 0.637225 0.137405 -0.758330
vn 0.338910 0.049301 -0.939526
vn 0.103895 0.092795 -0.990250
vn 0.637225 0.137405 -0.758330
vn 0.243511 0.158607 -0.956842
vn -0.316593 0.081198 -0.945080
vn 0.103895 0.092795 -0.990250
vn 0.243511 0.158607 -0.956842
vn -0.322313 0.067303 -0.944238
vn 0.103895 0.092795 -0.990250
vn -0.316593 0.081198 -0.945080
vn -0.836002 0.059400 -0.545501
vn -0.322313 0.067303 -0.944238
vn -0.316593 0.081198 -0.945080
vn 0.824658 0.565471 0.013499
vn 0.476877 0.818461 0.320485
vn 0.503809 0.842115 0.192403
vn -0.392281 -0.617171 -0.682067
vn 0.476877 0.818461 0.320485
vn 0.824658 0.565471 0.013499
vn 0.875154 -0.181711 -0.448427
vn -0.392281 -0.617171 -0.682067
vn 0.824658 0.565471 0.013499
vn 0.510529 -0.617735 -0.598134
vn -0.392281 -0.617171 -0.682067
vn 0.875154 -0.181711 -0.448427
vn 0.914875 -0.097897 -0.391689
vn 0.510529 -0.617735 -0.598134
vn 0.875154 -0.181711 -0.448427
vn 0.598099 -0.573599 -0.559699
vn 0.510529 -0.617735 -0.598134
vn 0.914875 -0.097897 -0.391689
vn -0.651509 0.567908 0.503007
vn -0.286297 0.844292 0.452996
vn -0.183895 0.821077 0.540385
vn -0.392281 -0.617171 -0.682067
vn -0.651509 0.567908 0.503007
vn -0.183895 0.821077 0.540385
vn -0.969987 -0.177398 0.166298
vn -0.651509 0.567908 0.503007
vn -0.392281 -0.617171 -0.682067
vn -0.769688 -0.614590 -0.172797
vn -0.969987 -0.177398 0.166298
vn -0.392281 -0.617171 -0.682067
vn -0.968558 -0.095596 0.229690
vn -0.969987 -0.177398 0.166298
vn -0.769688 -0.614590 -0.172797
vn -0.817000 -0.569300 -0.091700
vn -0.968558 -0.095596 0.229690
vn -0.769688 -0.614590 -0.172797
vn 0.824658 0.565471 0.013499
vn 0.914875 -0.097897 -0.391689
vn 0.875154 -0.181711 -0.448427
vn 0.811273 0.584080 -0.026199
vn 0.914875 -0.097897 -0.391689
vn 0.824658 0.565471 0.013499
vn 0.503809 0.842115 0.192403
vn 0.811273 0.584080 -0.026199
vn 0.824658 0.565471 0.013499
vn 0.821185 0.558790 -0.115798
vn 0.503823 0.809737 -0.300814
vn 0.439312 0.769520 -0.463512
vn 0.219994 -0.418488 0.881175
vn 0.821185 0.558790 -0.115798
vn 0.439312 0.769520 -0.463512
vn 0.872937 -0.154206 0.462819
vn 0.821185 0.558790 -0.115798
vn 0.219994 -0.418488 0.881175
vn 0.496699 -0.561999 0.661398
vn 0.872937 -0.154206 0.462819
vn 0.219994 -0.418488 0.881175
vn 0.916190 -0.074299 0.393796
vn 0.872937 -0.154206 0.462819
vn 0.496699 -0.561999 0.661398
vn 0.565884 -0.547584 0.616382
vn 0.916190 -0.074299 0.393796
vn 0.496699 -0.561999 0.661398
vn -0.588389 0.557990 -0.585189
vn -0.066902 0.771322 -0.632918
vn -0.219489 0.811360 -0.541774
vn 0.219994 -0.418488 0.881175
vn -0.066902 0.771322 -0.632918
vn -0.588389 0.557990 -0.585189
vn -0.975973 -0.151196 -0.156896
vn 0.219994 -0.418488 0.881175
vn -0.588389 0.557990 -0.585189
vn -0.796392 -0.559995 0.228398
vn 0.219994 -0.418488 0.881175
vn -0.975973 -0.151196 -0.156896
vn -0.969437 -0.077403 -0.232809
vn -0.796392 -0.559995 0.228398
vn -0.975973 -0.151196 -0.156896
vn -0.824942 -0.544728 0.150808
vn -0.796392 -0.559995 0.228398
vn -0.969437 -0.077403 -0.232809
vn 0.793809 0.048801 0.606207
vn 0.956542 -0.014901 0.291213
vn 0.567185 -0.004300 0.823579
vn -0.067700 -0.020200 -0.997501
vn -0.294890 -0.017699 -0.955367
vn -0.547801 0.575201 -0.607501
vn 0.238493 -0.609482 -0.756077
vn -0.294890 -0.017699 -0.955367
vn -0.067700 -0.020200 -0.997501
vn -0.651509 0.567908 0.503007
vn -0.671114 0.581612 0.459710
vn -0.286297 0.844292 0.452996
vn -0.968558 -0.095596 0.229690
vn -0.671114 0.581612 0.459710
vn -0.651509 0.567908 0.503007
vn -0.969987 -0.177398 0.166298
vn -0.968558 -0.095596 0.229690
vn -0.651509 0.567908 0.503007
vn -0.424599 -0.496199 -0.757299
vn -0.642403 -0.735503 -0.215301
vn 0.015300 -0.069398 -0.997472
vn -0.187908 -0.569625 -0.800136
vn -0.642403 -0.735503 -0.215301
vn -0.424599 -0.496199 -0.757299
vn 0.015300 -0.069398 -0.997472
vn -0.187908 -0.569625 -0.800136
vn -0.424599 -0.496199 -0.757299
vn 0.233296 -0.081499 -0.968984
vn -0.187908 -0.569625 -0.800136
vn 0.015300 -0.069398 -0.997472
vn 0.533591 0.547291 -0.644789
vn 0.233296 -0.081499 -0.968984
vn 0.015300 -0.069398 -0.997472
vn -0.574484 -0.046799 0.817177
vn -0.341396 0.007700 0.939888
vn 0.039701 0.528808 0.847813
vn -0.630883 -0.571385 0.524886
vn -0.341396 0.007700 0.939888
vn -0.574484 -0.046799 0.817177
vn -0.999781 0.019600 -0.007400
vn -0.857868 0.089697 0.505981
vn -0.999345 0.036202 0.000100
vn -0.836002 0.059400 -0.545501
vn -0.999781 0.019600 -0.007400
vn -0.999345 0.036202 0.000100
vn -0.934954 0.134908 -0.328119
vn -0.999781 0.019600 -0.007400
vn -0.836002 0.059400 -0.545501
vn -0.316593 0.081198 -0.945080
vn -0.934954 0.134908 -0.328119
vn -0.836002 0.059400 -0.545501
vn -0.588389 0.557990 -0.585189
vn -0.969437 -0.077403 -0.232809
vn -0.975973 -0.151196 -0.156896
vn -0.631801 0.565901 -0.529701
vn -0.969437 -0.077403 -0.232809
vn -0.588389 0.557990 -0.585189
vn -0.219489 0.811360 -0.541774
vn -0.631801 0.565901 -0.529701
vn -0.588389 0.557990 -0.585189
vn -0.209105 -0.754319 0.622316
vn 0.496699 -0.561999 0.661398
vn 0.219994 -0.418488 0.881175
vn -0.184595 -0.814180 0.550487
vn 0.496699 -0.561999 0.661398
vn -0.209105 -0.754319 0.622316
vn -0.796392 -0.559995 0.228398
vn -0.184595 -0.814180 0.550487
vn -0.209105 -0.754319 0.622316
vn -0.824942 -0.544728 0.150808
vn -0.184595 -0.814180 0.550487
vn -0.796392 -0.559995 0.228398
vn 0.496699 -0.561999 0.661398
vn -0.184595 -0.814180 0.550487
vn 0.565884 -0.547584 0.616382
vn 0.821185 0.558790 -0.115798
vn 0.816400 0.574900 -0.054600
vn 0.503823 0.809737 -0.300814
vn 0.916190 -0.074299 0.393796
vn 0.816400 0.574900 -0.054600
vn 0.821185 0.558790 -0.115798
vn 0.872937 -0.154206 0.462819
vn 0.916190 -0.074299 0.393796
vn 0.821185 0.558790 -0.115798
vn 0.197203 -0.795613 0.572809
vn 0.164097 -0.855685 0.490791
vn 0.803389 -0.584692 0.112698
vn -0.572612 -0.586712 0.572612
vn 0.164097 -0.855685 0.490791
vn 0.197203 -0.795613 0.572809
vn -0.336601 0.154400 0.928903
vn 0.683384 0.213695 0.698084
vn 0.222595 0.146897 0.963780
vn -0.179407 -0.827634 -0.531822
vn -0.392281 -0.617171 -0.682067
vn 0.510529 -0.617735 -0.598134
vn -0.158991 -0.866450 -0.473273
vn -0.179407 -0.827634 -0.531822
vn 0.510529 -0.617735 -0.598134
vn -0.769688 -0.614590 -0.172797
vn -0.179407 -0.827634 -0.531822
vn -0.158991 -0.866450 -0.473273
vn -0.817000 -0.569300 -0.091700
vn -0.769688 -0.614590 -0.172797
vn -0.158991 -0.866450 -0.473273
vn 0.510529 -0.617735 -0.598134
vn 0.598099 -0.573599 -0.559699
vn -0.158991 -0.866450 -0.473273
vn 0.797015 -0.506610 0.328806
vn 0.708489 -0.671790 -0.216197
vn 0.600796 -0.025500 0.798995
vn 0.658181 -0.578183 0.482186
vn 0.708489 -0.671790 -0.216197
vn 0.797015 -0.506610 0.328806
vn 0.600796 -0.025500 0.798995
vn 0.658181 -0.578183 0.482186
vn 0.797015 -0.506610 0.328806
vn 0.393905 -0.025000 0.918811
vn 0.658181 -0.578183 0.482186
vn 0.600796 -0.025500 0.798995
vn 0.005100 0.530909 0.847414
vn 0.393905 -0.025000 0.918811
vn 0.600796 -0.025500 0.798995
vn -0.027800 -0.007800 -0.999583
vn 0.023600 0.015200 -0.999606
vn -0.579619 0.032801 -0.814227
vn 0.519892 -0.030500 -0.853687
vn 0.023600 0.015200 -0.999606
vn -0.027800 -0.007800 -0.999583
vn 0.338910 0.049301 -0.939526
vn 0.519892 -0.030500 -0.853687
vn -0.027800 -0.007800 -0.999583
vn -0.591188 0.101798 0.800084
vn -0.128906 0.445721 0.885842
vn 0.000000 0.118199 0.992990
vn -0.770575 0.255992 0.583681
vn -0.128906 0.445721 0.885842
vn -0.591188 0.101798 0.800084
vn -0.996240 0.076903 0.039902
vn -0.770575 0.255992 0.583681
vn -0.591188 0.101798 0.800084
vn -0.951885 0.289195 0.101398
vn -0.770575 0.255992 0.583681
vn -0.996240 0.076903 0.039902
vn -0.674995 0.382397 -0.630995
vn -0.951885 0.289195 0.101398
vn -0.996240 0.076903 0.039902
vn 0.814599 0.024700 -0.579499
vn 0.996068 0.088597 -0.000200
vn 0.690709 0.110701 -0.714609
vn 0.999604 0.027400 0.006500
vn 0.996068 0.088597 -0.000200
vn 0.814599 0.024700 -0.579499
vn -0.947528 0.048901 -0.315909
vn -0.618231 -0.015701 -0.785840
vn -0.705272 0.068997 -0.705572
vn -0.796392 -0.559995 0.228398
vn -0.209105 -0.754319 0.622316
vn 0.219994 -0.418488 0.881175
vn -0.769688 -0.614590 -0.172797
vn -0.392281 -0.617171 -0.682067
vn -0.179407 -0.827634 -0.531822
vn -0.042200 -0.999101 0.004000
vn -0.029599 -0.999562 -0.000200
vn -0.029599 -0.999562 -0.000200
vn -0.027900 -0.999594 0.005800
vn -0.036600 -0.999101 -0.021400
vn -0.029599 -0.999562 -0.000200
vn -0.029599 -0.999562 -0.000200
vn -0.024000 -0.999680 0.008000
vn -0.029599 -0.999562 -0.000200
vn -0.038498 -0.999255 0.002700
vn -0.029599 -0.999562 -0.000200
vn -0.029799 -0.999556 0.000400
vn -0.029599 -0.999562 -0.000200
vn -0.026801 -0.999623 -0.006000
s off
g Dead_Tree:Mesh
f 232/1/1 91/2/2 92/3/3
f 164/4/4 90/5/5 94/6/6
f 238/7/7 134/8/8 137/9/9
f 175/10/10 135/11/11 138/12/12
f 127/13/13 124/14/14 129/15/15
f 241/16/16 177/17/17 128/18/18
f 252/19/19 192/20/20 193/21/21
f 111/22/22 107/23/23 24/24/24
f 19/25/25 107/23/26 111/22/27
f 10/26/28 19/25/29 111/22/30
f 22/27/31 19/25/32 10/26/33
f 2/28/34 22/27/35 10/26/36
f 18/29/37 22/27/38 2/28/39
f 9/30/40 18/29/41 2/28/42
f 78/31/43 18/29/44 9/30/45
f 14/32/46 78/31/47 9/30/48
f 4/33/49 78/31/50 14/32/51
f 37/34/52 4/33/53 14/32/54
f 154/35/55 4/33/56 37/34/57
f 26/36/58 47/37/59 102/38/60
f 53/39/61 47/37/62 26/36/63
f 76/40/64 53/39/65 26/36/66
f 29/41/67 53/39/68 76/40/69
f 53/39/70 55/42/71 101/43/72
f 61/44/73 55/42/74 53/39/75
f 64/45/76 61/44/77 53/39/78
f 160/46/79 115/47/80 162/48/81
f 56/49/82 115/47/83 160/46/84
f 96/50/85 56/49/86 160/46/87
f 141/51/88 192/20/89 140/52/90
f 13/53/91 192/20/92 141/51/93
f 140/52/94 62/54/95 195/55/96
f 194/56/97 62/54/98 140/52/99
f 193/21/100 194/56/101 140/52/102
f 140/52/103 195/55/104 196/57/105
f 197/58/106 140/52/107 196/57/108
f 198/59/109 140/52/110 197/58/111
f 199/60/112 198/59/113 197/58/114
f 201/61/115 142/62/116 200/63/117
f 143/64/118 142/62/119 201/61/120
f 203/65/121 143/64/122 201/61/123
f 250/66/124 204/67/125 205/68/126
f 202/69/127 204/67/128 250/66/129
f 203/65/130 202/69/131 250/66/132
f 206/70/133 205/68/134 207/71/135
f 250/66/136 205/68/137 206/70/138
f 133/72/139 190/73/140 208/74/141
f 187/75/142 133/72/143 208/74/144
f 136/76/145 133/72/146 187/75/147
f 239/77/148 136/76/149 187/75/150
f 133/72/151 136/76/152 239/77/153
f 100/78/154 133/72/155 239/77/156
f 132/79/157 133/72/158 100/78/159
f 246/80/160 132/79/161 100/78/162
f 239/77/163 249/81/164 100/78/165
f 125/82/166 185/83/167 213/84/168
f 186/85/169 125/82/170 213/84/171
f 131/86/172 125/82/173 186/85/174
f 240/87/175 131/86/176 186/85/177
f 125/82/178 131/86/179 240/87/180
f 110/88/181 125/82/182 240/87/183
f 126/89/184 125/82/185 110/88/186
f 242/90/187 126/89/188 110/88/189
f 245/91/190 110/88/191 240/87/192
f 184/92/193 244/93/194 240/87/195
f 245/91/196 244/93/197 184/92/198
f 215/94/199 245/91/200 184/92/201
f 183/95/202 242/90/203 216/96/204
f 243/97/205 242/90/206 183/95/207
f 126/89/208 243/97/209 183/95/210
f 88/98/211 77/99/212 234/100/213
f 89/101/214 77/99/215 88/98/216
f 95/102/217 89/101/218 88/98/219
f 174/103/220 89/101/221 95/102/222
f 88/98/223 174/103/224 95/102/225
f 222/104/226 174/103/227 88/98/228
f 171/105/229 222/104/230 88/98/231
f 233/106/232 224/107/233 173/108/234
f 172/109/235 224/107/236 233/106/237
f 93/110/238 172/109/239 233/106/240
f 89/101/241 172/109/242 93/110/243
f 233/106/244 89/101/245 93/110/246
f 251/111/247 89/101/248 233/106/249
f 237/112/250 251/111/251 233/106/252
f 173/108/253 236/113/254 233/106/255
f 237/112/256 236/113/257 173/108/258
f 225/114/259 237/112/260 173/108/261
f 171/105/262 234/100/263 226/115/264
f 235/116/265 234/100/266 171/105/267
f 88/98/268 235/116/269 171/105/270
f 188/117/271 246/80/272 228/118/273
f 247/119/274 246/80/275 188/117/276
f 132/79/277 247/119/278 188/117/279
f 189/120/280 248/121/281 239/77/282
f 249/81/283 248/121/284 189/120/285
f 229/122/286 249/81/287 189/120/288
f 78/31/289 165/123/290 74/124/291
f 144/125/292 165/123/293 78/31/294
f 4/33/295 144/125/296 78/31/297
f 78/31/298 74/124/299 18/29/300
f 21/126/301 108/127/302 28/128/303
f 24/24/304 108/127/305 21/126/306
f 12/129/307 24/24/308 21/126/309
f 6/130/310 24/24/311 12/129/312
f 5/131/313 6/130/314 12/129/315
f 111/22/316 6/130/317 5/131/318
f 10/26/319 111/22/320 5/131/321
f 22/27/322 106/132/323 19/25/324
f 27/133/325 106/132/326 22/27/327
f 48/134/328 27/133/329 22/27/330
f 109/135/331 27/133/332 48/134/333
f 28/128/334 109/135/335 48/134/336
f 48/134/337 103/136/338 58/137/339
f 52/138/340 103/136/341 48/134/342
f 22/27/343 52/138/344 48/134/345
f 102/38/346 52/138/347 22/27/348
f 113/139/349 102/38/350 22/27/351
f 26/36/352 102/38/353 113/139/354
f 22/27/355 26/36/356 113/139/357
f 73/140/358 26/36/359 22/27/360
f 18/29/361 73/140/362 22/27/363
f 16/141/364 231/142/365 148/143/366
f 3/144/367 231/142/368 16/141/369
f 11/145/370 3/144/371 16/141/372
f 25/146/373 3/144/374 11/145/375
f 20/147/376 25/146/377 11/145/378
f 75/148/379 25/146/380 20/147/381
f 161/149/382 75/148/383 20/147/384
f 46/150/385 45/151/386 151/152/387
f 42/153/388 45/151/389 46/150/390
f 41/154/391 42/153/392 46/150/393
f 43/155/394 42/153/395 41/154/396
f 5/131/397 43/155/398 41/154/399
f 17/156/400 43/155/401 5/131/402
f 12/129/403 17/156/404 5/131/405
f 8/157/406 17/156/407 12/129/408
f 7/158/409 8/157/410 12/129/411
f 16/141/412 8/157/413 7/158/414
f 11/145/415 16/141/416 7/158/417
f 145/159/418 17/156/419 8/157/420
f 43/155/421 17/156/422 145/159/423
f 44/160/424 43/155/425 145/159/426
f 42/153/427 43/155/428 44/160/429
f 8/157/430 146/161/431 145/159/432
f 40/162/433 146/161/434 8/157/435
f 16/141/436 40/162/437 8/157/438
f 39/163/439 40/162/440 16/141/441
f 147/164/442 39/163/443 16/141/444
f 148/143/445 147/164/446 16/141/447
f 46/150/448 5/131/449 41/154/450
f 15/165/451 5/131/452 46/150/453
f 151/152/454 15/165/455 46/150/456
f 1/166/457 15/165/458 151/152/459
f 150/167/460 1/166/461 151/152/462
f 149/168/463 1/166/464 150/167/465
f 14/32/466 38/169/467 37/34/468
f 149/168/469 38/169/470 14/32/471
f 1/166/472 149/168/473 14/32/474
f 21/126/475 7/158/476 12/129/477
f 23/170/478 7/158/479 21/126/480
f 51/171/481 23/170/482 21/126/483
f 112/172/484 23/170/485 51/171/486
f 97/173/487 112/172/488 51/171/489
f 49/174/490 112/172/491 97/173/492
f 20/147/493 23/170/494 112/172/495
f 49/174/496 20/147/497 112/172/498
f 161/149/499 20/147/500 49/174/501
f 160/46/502 161/149/503 49/174/504
f 28/128/505 69/175/506 50/176/507
f 54/177/508 69/175/509 28/128/510
f 48/134/511 54/177/512 28/128/513
f 70/178/514 54/177/515 48/134/516
f 60/179/517 70/178/518 48/134/519
f 53/39/520 101/43/521 47/37/522
f 65/180/523 48/134/524 58/137/525
f 104/181/526 65/180/527 58/137/528
f 114/182/529 65/180/530 104/181/531
f 61/44/532 114/182/533 104/181/534
f 59/183/535 63/184/536 66/185/537
f 115/47/538 59/183/539 66/185/540
f 99/186/541 59/183/542 115/47/543
f 56/49/544 99/186/545 115/47/546
f 191/187/547 98/188/548 51/171/549
f 59/183/550 98/188/551 191/187/552
f 210/189/553 59/183/554 191/187/555
f 63/184/556 59/183/557 210/189/558
f 71/190/559 63/184/560 210/189/561
f 79/191/562 63/184/563 71/190/564
f 67/192/565 79/191/566 71/190/567
f 86/193/568 83/194/569 169/195/570
f 72/196/571 83/194/572 86/193/573
f 80/197/574 72/196/575 86/193/576
f 85/198/577 72/196/578 80/197/579
f 68/199/580 85/198/581 80/197/582
f 168/200/583 85/198/584 68/199/585
f 87/201/586 170/202/587 163/203/588
f 72/196/589 87/201/590 163/203/591
f 82/204/592 87/201/593 72/196/594
f 84/205/595 82/204/596 72/196/597
f 167/206/598 82/204/599 84/205/600
f 227/207/601 167/206/602 84/205/603
f 86/193/604 68/199/605 80/197/606
f 57/208/607 68/199/608 86/193/609
f 169/195/610 57/208/611 86/193/612
f 120/209/613 179/210/614 119/211/615
f 105/212/616 120/209/617 119/211/618
f 116/213/619 120/209/620 105/212/621
f 123/214/622 116/213/623 105/212/624
f 178/215/625 116/213/626 123/214/627
f 220/216/628 178/215/629 123/214/630
f 121/217/631 176/218/632 180/219/633
f 105/212/634 176/218/635 121/217/636
f 118/220/637 105/212/638 121/217/639
f 122/221/640 105/212/641 118/220/642
f 181/222/643 122/221/644 118/220/645
f 219/223/646 122/221/647 181/222/648
f 160/46/649 49/174/650 96/50/651
f 239/77/652 209/224/653 189/120/654
f 187/75/655 209/224/656 239/77/657
f 87/201/658 211/225/659 170/202/660
f 167/206/661 211/225/662 87/201/663
f 82/204/664 167/206/665 87/201/666
f 130/226/667 125/82/668 126/89/669
f 185/83/670 125/82/671 130/226/672
f 126/89/673 185/83/674 130/226/675
f 212/227/676 185/83/677 126/89/678
f 183/95/679 212/227/680 126/89/681
f 240/87/682 214/228/683 184/92/684
f 186/85/685 214/228/686 240/87/687
f 48/134/688 65/180/689 217/229/690
f 67/192/691 48/134/692 217/229/693
f 60/179/694 48/134/695 67/192/696
f 71/190/697 60/179/698 67/192/699
f 121/217/700 181/222/701 118/220/702
f 218/230/703 181/222/704 121/217/705
f 180/219/706 218/230/707 121/217/708
f 117/231/709 123/214/710 105/212/711
f 182/232/712 123/214/713 117/231/714
f 122/221/715 182/232/716 117/231/717
f 219/223/718 182/232/719 122/221/720
f 123/214/721 182/232/722 220/216/723
f 120/209/724 221/233/725 179/210/726
f 178/215/727 221/233/728 120/209/729
f 116/213/730 178/215/731 120/209/732
f 89/101/733 223/234/734 172/109/735
f 174/103/736 223/234/737 89/101/738
f 104/181/739 55/42/740 61/44/741
f 81/235/742 72/196/743 85/198/744
f 166/236/745 81/235/746 85/198/747
f 84/205/748 81/235/749 166/236/750
f 227/207/751 84/205/752 166/236/753
f 85/198/754 168/200/755 166/236/756
f 139/237/757 133/72/758 132/79/759
f 190/73/760 133/72/761 139/237/762
f 132/79/763 190/73/764 139/237/765
f 230/238/766 190/73/767 132/79/768
f 188/117/769 230/238/770 132/79/771
f 50/176/772 21/126/773 28/128/774
f 51/171/775 21/126/776 50/176/777
f 191/187/778 51/171/779 50/176/780
f 2/28/781 14/32/782 9/30/783
f 1/166/784 14/32/785 2/28/786
f 10/26/787 1/166/788 2/28/789
f 15/165/790 1/166/791 10/26/792
f 5/131/793 15/165/794 10/26/795
f 23/170/796 11/145/797 7/158/798
f 20/147/799 11/145/800 23/170/801
f 111/22/802 24/24/803 6/130/804
f 122/221/805 117/231/806 105/212/807
f 84/205/808 72/196/809 81/235/810
f 34/239/811 155/240/812 156/241/813 32/242/814 35/243/815 152/244/816 153/245/817 30/246/818 36/247/819 31/248/820 159/249/821 158/250/822 157/251/823 33/252/824
