# This file uses centimeters as units for non-parametric coordinates.

g default
v -20.737065 0.000000 107.164944
v -8.727260 0.000000 122.088031
v 22.607497 0.000000 136.987832
v 42.317575 0.000000 136.872380
v -20.737065 79.897885 107.164944
v -8.727260 79.897885 122.088031
v 22.607497 79.897885 136.987832
v 42.317575 79.897885 136.872380
v -43.613395 79.897885 83.187764
v -16.233832 79.897885 103.390666
v 22.607497 79.897885 110.613322
v 67.822483 79.897885 110.613322
v -53.942249 79.897885 69.338995
v -22.607493 79.897885 84.238801
v 22.607497 79.897885 84.238801
v 67.822483 79.897885 84.238801
v -67.822483 79.897885 57.864286
v -22.607493 79.897885 57.864286
v 22.607497 79.897885 57.864286
v 67.822483 79.897885 57.864286
v -65.562992 79.897885 26.270837
v -22.607493 79.897885 31.489776
v 22.607497 79.897885 31.489776
v 67.822483 79.897885 31.489776
v -61.945492 79.897885 4.470745
v -22.607493 79.897885 5.115261
v 22.607497 79.897885 5.115261
v 67.822483 79.897885 10.650073
v -62.864210 79.897885 -16.463823
v -22.607493 79.897885 -21.259252
v 22.607497 79.897885 -21.259252
v 42.001616 79.897885 -23.821858
v -59.973158 79.897885 -55.958985
v -22.607493 79.897885 -47.633776
v 22.607497 79.897885 -47.633776
v 42.001616 79.897885 -45.071162
v -67.822483 79.897885 -74.008291
v -22.607493 79.897885 -74.008291
v 22.607497 79.897885 -74.008291
v 67.822483 79.897885 -66.320463
v -67.822483 79.897885 -100.382790
v -22.607493 79.897885 -100.382790
v 22.607497 79.897885 -100.382790
v 60.737688 79.897885 -108.958254
v -43.911454 79.897885 -126.757311
v -21.403624 79.897885 -136.987821
v 22.607497 79.897885 -126.757311
v 42.931156 79.897885 -131.698182
v -43.911454 0.000000 -126.757311
v -21.403624 0.000000 -136.987821
v 22.607497 0.000000 -126.757311
v 42.931159 0.000000 -131.698182
v -67.822483 0.000000 -100.382801
v 60.737688 0.000000 -108.958254
v -67.822483 0.000000 -74.008291
v 67.822483 0.000000 -66.320479
v -59.973158 0.000000 -55.958985
v 42.001616 0.000000 -45.071173
v -62.864210 0.000000 -16.463831
v 42.001616 0.000000 -23.821864
v -61.945492 0.000000 4.470737
v 67.822483 0.000000 10.650067
v -65.562992 0.000000 26.270828
v 67.822483 0.000000 31.489767
v -67.822483 0.000000 57.864280
v 67.822483 0.000000 57.864280
v -53.942249 0.000000 69.338989
v 67.822483 0.000000 84.238796
v -43.613395 0.000000 83.187748
v 67.822483 0.000000 110.613311
v -20.737065 71.949404 107.164944
v -43.613395 71.949404 83.187764
v -53.942249 71.949404 69.338995
v -67.822483 71.949404 57.864286
v -65.562992 71.949404 26.270837
v -61.945492 71.949404 4.470745
v -62.864210 71.949404 -16.463825
v -59.973158 71.949404 -55.958985
v -67.822483 71.949404 -74.008291
v -67.822483 71.949404 -100.382790
v -43.911454 71.949419 -126.757311
v -21.403624 71.949419 -136.987821
v 22.607497 71.949419 -126.757311
v 42.931156 71.949419 -131.698182
v 60.737688 71.949404 -108.958254
v 67.822483 71.949404 -66.320463
v 42.001616 71.949404 -45.071162
v 42.001616 71.949404 -23.821858
v 67.822483 71.949404 10.650073
v 67.822483 71.949404 31.489773
v 67.822483 71.949404 57.864286
v 67.822483 71.949404 84.238801
v 67.822483 71.949404 110.613322
v 42.317575 71.949404 136.872380
v 22.607497 71.949404 136.987832
v -8.727260 71.949404 122.088031
v -26.063190 71.949404 111.834213
v -49.019458 71.949404 87.753881
v -59.042191 71.949404 74.190202
v -73.616654 71.949404 60.343416
v -72.595494 71.949404 25.437707
v -68.983609 71.949404 4.045887
v -69.940690 71.949404 -16.567193
v -66.758971 71.949404 -54.804134
v -74.617756 71.949404 -72.594662
v -73.993265 71.949404 -102.763607
v -48.004320 71.949419 -132.365103
v -22.067812 71.949419 -143.667406
v 22.572717 71.949419 -133.654288
v 44.884655 71.949419 -137.327904
v 67.025272 71.949404 -111.724658
v 73.571646 71.949404 -64.164471
v 47.798726 71.949404 -42.334144
v 48.383340 71.949404 -25.946920
v 74.204204 71.949404 8.525010
v 74.911834 71.949404 31.489773
v 74.911834 71.949404 57.864286
v 74.911834 71.949404 84.238801
v 73.909867 71.949404 113.083019
v 44.881049 71.949404 142.886676
v 21.106079 71.949404 143.733640
v -13.010919 71.949404 127.511614
v -23.783289 79.897885 109.802528
v -24.923240 79.525835 110.818382
v -25.757741 78.509381 111.562027
v -26.063190 77.120871 111.834213
v -49.019458 77.120871 87.753881
v -48.705823 78.509381 87.490275
v -47.848953 79.525835 86.770092
v -46.678453 79.897885 85.786297
v -59.042191 77.120871 74.190202
v -58.734602 78.509381 73.918413
v -57.894256 79.525835 73.175859
v -56.746321 79.897885 72.161532
v -73.616654 77.120871 60.343416
v -73.202589 78.509381 60.172785
v -72.071339 79.525835 59.706626
v -70.526020 79.897885 59.069836
v -72.595494 77.120871 25.437707
v -72.187595 78.509381 25.477915
v -71.073196 79.525835 25.587766
v -69.550898 79.897885 25.737824
v -68.983609 77.120871 4.045887
v -68.573115 78.509381 4.070726
v -67.451624 79.525835 4.138585
v -65.919639 79.897885 4.231283
v -69.940690 77.120871 -16.567190
v -69.531006 78.509381 -16.559688
v -68.411714 79.525835 -16.539189
v -66.882732 79.897885 -16.511189
v -66.758971 77.120871 -54.804134
v -66.342840 78.509381 -54.874054
v -65.205948 79.525835 -55.065090
v -63.652924 79.897885 -55.326041
v -74.617756 77.120871 -72.594662
v -74.207058 78.509381 -72.676903
v -73.085049 79.525835 -72.901596
v -71.552326 79.897885 -73.208507
v -73.993265 77.120871 -102.763607
v -73.587543 78.509381 -102.605946
v -72.479078 79.525835 -102.175263
v -70.964897 79.897885 -101.586908
v -48.004320 77.120871 -132.365103
v -47.757278 78.509381 -132.026705
v -47.082340 79.525835 -131.102256
v -46.160360 79.897885 -129.839366
v -22.067812 77.120871 -143.667406
v -22.026942 78.509381 -143.239180
v -21.915283 79.525835 -142.069237
v -21.762754 79.897885 -140.471068
v 22.572717 77.120871 -133.654288
v 22.560749 78.509381 -133.237909
v 22.528052 79.525835 -132.100356
v 22.483389 79.897885 -130.546412
v 44.884655 77.120871 -137.327904
v 44.725144 78.509381 -136.887225
v 44.289341 79.525835 -135.683295
v 43.694035 79.897885 -134.038707
v 67.025272 77.120871 -111.724658
v 66.636714 78.509381 -111.548847
v 65.575158 79.525835 -111.068548
v 64.125045 79.897885 -110.412439
v 73.571646 77.120871 -64.164471
v 73.135937 78.509381 -64.331279
v 71.945534 79.525835 -64.787012
v 70.319417 79.897885 -65.409541
v 47.798726 77.120871 -42.334144
v 47.383009 78.509381 -42.517896
v 46.247257 79.525835 -43.019904
v 44.695782 79.897885 -43.705659
v 48.383340 77.120871 -25.946920
v 47.979265 78.509381 -25.804314
v 46.875319 79.525835 -25.414713
v 45.367301 79.897885 -24.882502
v 74.204204 77.120871 8.525010
v 73.799474 78.509381 8.666742
v 72.693748 79.525835 9.053961
v 71.183275 79.897885 9.582911
v 74.911834 77.120871 31.489776
v 74.502933 78.509381 31.496074
v 73.385795 79.525835 31.513285
v 71.859761 79.897885 31.536789
v 74.911834 77.120871 57.864286
v 74.502933 78.509381 57.864286
v 73.385795 79.525835 57.864286
v 71.859761 79.897885 57.864286
v 74.911834 77.120871 84.238801
v 74.502933 78.509381 84.231704
v 73.385795 79.525835 84.212302
v 71.859761 79.897885 84.185809
v 73.909867 77.120871 113.083019
v 73.506702 78.509381 112.910911
v 72.405224 79.525835 112.440686
v 70.900581 79.897885 111.798363
v 44.881049 77.120876 142.886676
v 44.702574 78.509381 142.483864
v 44.214972 79.525835 141.383394
v 43.548894 79.897885 139.880112
v 21.106079 77.120871 143.733640
v 21.191403 78.509381 143.321437
v 21.424514 79.525835 142.195290
v 21.742950 79.897885 140.656952
v -13.010919 77.120871 127.511614
v -12.754173 78.509381 127.180920
v -12.052728 79.525835 126.277465
v -11.094537 79.897885 125.043316
vt 0.149195 0.543866
vt 0.128932 0.561667
vt 0.031054 0.515083
vt 0.057198 0.476961
vt 0.109460 0.600374
vt 0.009766 0.596773
vt 0.109411 0.625685
vt 0.012159 0.645711
vt 0.638265 0.083927
vt 0.657444 0.062486
vt 0.644989 0.090747
vt 0.604771 0.121808
vt 0.702874 0.041023
vt 0.702849 0.081902
vt 0.729315 0.040807
vt 0.768075 0.074737
vt 0.636687 0.120953
vt 0.590503 0.143580
vt 0.705796 0.122346
vt 0.776082 0.112371
vt 0.639273 0.162905
vt 0.573522 0.162159
vt 0.709377 0.162674
vt 0.780984 0.152490
vt 0.641092 0.205355
vt 0.573674 0.210180
vt 0.712393 0.203716
vt 0.783173 0.193529
vt 0.642113 0.246335
vt 0.577391 0.244800
vt 0.716364 0.245618
vt 0.783502 0.225736
vt 0.643298 0.286899
vt 0.576925 0.277402
vt 0.720116 0.286579
vt 0.755290 0.289714
vt 0.642896 0.327374
vt 0.579918 0.338827
vt 0.719038 0.328123
vt 0.754164 0.324492
vt 0.642298 0.367765
vt 0.572345 0.367191
vt 0.712705 0.370208
vt 0.779111 0.367097
vt 0.640191 0.410481
vt 0.574018 0.406222
vt 0.709676 0.414448
vt 0.765321 0.428692
vt 0.638438 0.465369
vt 0.601664 0.452400
vt 0.710077 0.458773
vt 0.743294 0.466102
vt 0.579523 0.501941
vt 0.599784 0.557056
vt 0.500352 0.584284
vt 0.489215 0.554683
vt 0.595922 0.662355
vt 0.481196 0.640718
vt 0.577851 0.706614
vt 0.482427 0.667834
vt 0.457563 0.689358
vt 0.537766 0.761473
vt 0.407581 0.706298
vt 0.453200 0.812993
vt 0.359559 0.684767
vt 0.377577 0.823982
vt 0.324605 0.688528
vt 0.332391 0.826201
vt 0.262454 0.708987
vt 0.242318 0.826687
vt 0.235336 0.702514
vt 0.197600 0.816114
vt 0.201521 0.692452
vt 0.144443 0.795472
vt 0.168695 0.681947
vt 0.095318 0.765483
vt 0.136706 0.665466
vt 0.051900 0.723792
vt 0.461257 0.520457
vt 0.524243 0.439149
vt 0.423773 0.512399
vt 0.471979 0.409310
vt 0.394659 0.514463
vt 0.431492 0.393714
vt 0.335515 0.502799
vt 0.348303 0.375960
vt 0.303052 0.500649
vt 0.303046 0.371931
vt 0.270900 0.493781
vt 0.254202 0.371934
vt 0.227730 0.487776
vt 0.183794 0.387446
vt 0.207882 0.502790
vt 0.146728 0.404053
vt 0.185958 0.515882
vt 0.112802 0.424038
vt 0.579272 0.098962
vt 0.615677 0.057270
vt 0.622664 0.066027
vt 0.587512 0.106610
vt 0.561604 0.122749
vt 0.571078 0.128669
vt 0.547867 0.152708
vt 0.555645 0.154873
vt 0.540276 0.206406
vt 0.551082 0.208196
vt 0.541884 0.243018
vt 0.553197 0.243583
vt 0.543278 0.276571
vt 0.554279 0.276734
vt 0.544454 0.337219
vt 0.555288 0.336959
vt 0.541151 0.367640
vt 0.551072 0.366833
vt 0.545328 0.413804
vt 0.554167 0.411366
vt 0.569714 0.466521
vt 0.580759 0.464558
vt 0.635627 0.495141
vt 0.594051 0.486147
vt 0.593577 0.474985
vt 0.636111 0.485722
vt 0.709259 0.493515
vt 0.708703 0.482701
vt 0.740664 0.493131
vt 0.745668 0.485509
vt 0.795119 0.437701
vt 0.770363 0.479472
vt 0.760191 0.480085
vt 0.785938 0.435187
vt 0.804959 0.365989
vt 0.797812 0.365601
vt 0.787833 0.318777
vt 0.778968 0.320305
vt 0.788982 0.294388
vt 0.779554 0.293010
vt 0.812790 0.229297
vt 0.803670 0.227662
vt 0.817462 0.191126
vt 0.806313 0.191625
vt 0.815094 0.145863
vt 0.804029 0.148140
vt 0.808311 0.100509
vt 0.798177 0.104786
vt 0.789865 0.055689
vt 0.784151 0.061871
vt 0.740240 0.013947
vt 0.736353 0.021605
vt 0.699155 0.009766
vt 0.700148 0.019422
vt 0.642636 0.034458
vt 0.646642 0.043663
vt 0.628550 0.073239
vt 0.630258 0.075209
vt 0.596106 0.114238
vt 0.594226 0.112575
vt 0.631983 0.077164
vt 0.598002 0.115897
vt 0.633720 0.079105
vt 0.599913 0.117556
vt 0.578963 0.134184
vt 0.563338 0.157642
vt 0.559936 0.209341
vt 0.562660 0.244166
vt 0.563119 0.276929
vt 0.565115 0.337438
vt 0.559640 0.366513
vt 0.562351 0.409214
vt 0.589563 0.460819
vt 0.595709 0.465627
vt 0.636863 0.477371
vt 0.709082 0.473204
vt 0.746413 0.476914
vt 0.751483 0.475737
vt 0.777540 0.432689
vt 0.789735 0.365985
vt 0.768701 0.321454
vt 0.769873 0.291736
vt 0.795427 0.226890
vt 0.797212 0.192132
vt 0.795034 0.149906
vt 0.789603 0.108083
vt 0.777706 0.067467
vt 0.733377 0.029442
vt 0.701087 0.028018
vt 0.650750 0.051262
vt 0.585465 0.139031
vt 0.569808 0.160358
vt 0.567380 0.210040
vt 0.570677 0.244549
vt 0.570550 0.277156
vt 0.573498 0.338097
vt 0.566751 0.366735
vt 0.569307 0.407413
vt 0.596472 0.456415
vt 0.637722 0.470355
vt 0.598718 0.458123
vt 0.709433 0.465119
vt 0.744586 0.469556
vt 0.770543 0.430414
vt 0.745550 0.469582
vt 0.782688 0.366672
vt 0.759483 0.323083
vt 0.761402 0.290555
vt 0.788524 0.226118
vt 0.789622 0.192767
vt 0.787451 0.151320
vt 0.782363 0.110632
vt 0.772008 0.072001
vt 0.730794 0.036279
vt 0.701977 0.035357
vt 0.654371 0.057620
vt 0.583320 0.137390
vt 0.581152 0.135770
vt 0.567621 0.159395
vt 0.565457 0.158482
vt 0.564899 0.209841
vt 0.562417 0.209610
vt 0.568000 0.244428
vt 0.565325 0.244299
vt 0.568061 0.277075
vt 0.565585 0.276999
vt 0.570694 0.337829
vt 0.567893 0.337602
vt 0.564375 0.366612
vt 0.562004 0.366536
vt 0.566960 0.408013
vt 0.564633 0.408613
vt 0.594251 0.458055
vt 0.591963 0.459553
vt 0.597529 0.460571
vt 0.637405 0.472714
vt 0.596492 0.463063
vt 0.637113 0.475056
vt 0.709298 0.467826
vt 0.709176 0.470524
vt 0.745631 0.472059
vt 0.746333 0.474518
vt 0.747309 0.472030
vt 0.772874 0.431203
vt 0.749244 0.474155
vt 0.775210 0.431966
vt 0.785090 0.366370
vt 0.787451 0.366135
vt 0.762619 0.322505
vt 0.765716 0.321963
vt 0.764267 0.290949
vt 0.767103 0.291335
vt 0.790855 0.226364
vt 0.793161 0.226617
vt 0.792150 0.192547
vt 0.794680 0.192334
vt 0.789987 0.150857
vt 0.792517 0.150386
vt 0.784783 0.109809
vt 0.787195 0.108959
vt 0.773965 0.070504
vt 0.775875 0.068986
vt 0.731640 0.033942
vt 0.732500 0.031651
vt 0.701675 0.032889
vt 0.701380 0.030435
vt 0.653118 0.055513
vt 0.651906 0.053394
vn -0.779049 0.000000 0.626963
vn -0.566832 0.000000 0.823833
vn -0.566832 0.000000 0.823833
vn -0.779049 0.000000 0.626963
vn -0.278201 0.000000 0.960523
vn -0.278201 0.000000 0.960523
vn 0.005858 0.000000 0.999983
vn 0.005858 0.000000 0.999983
vn 0.000000 1.000000 -0.000000
vn 0.000000 1.000000 -0.000000
vn 0.000000 1.000000 -0.000000
vn 0.000000 1.000000 0.000000
vn 0.000000 1.000000 -0.000000
vn 0.000000 1.000000 -0.000000
vn 0.000000 1.000000 -0.000000
vn 0.000000 1.000000 -0.000000
vn 0.000000 1.000000 -0.000000
vn 0.000000 1.000000 -0.000000
vn 0.000000 1.000000 -0.000000
vn 0.000000 1.000000 0.000000
vn 0.000000 1.000000 -0.000000
vn 0.000000 1.000000 0.000000
vn 0.000000 1.000000 0.000000
vn 0.000000 1.000000 0.000000
vn 0.000000 1.000000 -0.000000
vn 0.000000 1.000000 -0.000000
vn 0.000000 1.000000 0.000000
vn 0.000000 1.000000 0.000000
vn 0.000000 1.000000 -0.000000
vn 0.000000 1.000000 -0.000000
vn 0.000000 1.000000 0.000000
vn 0.000000 1.000000 0.000000
vn 0.000000 1.000000 0.000000
vn 0.000000 1.000000 0.000000
vn 0.000000 1.000000 0.000000
vn 0.000000 1.000000 0.000000
vn 0.000000 1.000000 0.000000
vn 0.000000 1.000000 0.000000
vn 0.000000 1.000000 0.000000
vn 0.000000 1.000000 0.000000
vn 0.000000 1.000000 0.000000
vn 0.000000 1.000000 -0.000000
vn 0.000000 1.000000 0.000000
vn 0.000000 1.000000 0.000000
vn 0.000000 1.000000 0.000000
vn 0.000000 1.000000 -0.000000
vn 0.000000 1.000000 0.000000
vn 0.000000 1.000000 0.000000
vn 0.000000 1.000000 0.000000
vn 0.000000 1.000000 -0.000000
vn 0.000000 1.000000 0.000000
vn 0.000000 1.000000 0.000000
vn -0.413792 0.000000 -0.910371
vn 0.000000 0.000000 -1.000000
vn 0.000000 0.000000 -1.000000
vn -0.413792 0.000000 -0.910371
vn 0.081944 -0.000000 -0.996637
vn 0.081944 -0.000000 -0.996637
vn -0.236229 -0.000000 -0.971698
vn -0.236229 -0.000000 -0.971697
vn 0.934557 0.000000 -0.355815
vn 0.787336 0.000000 -0.616524
vn 0.787336 0.000000 -0.616524
vn 0.934557 0.000000 -0.355815
vn 0.959586 -0.000000 0.281416
vn 0.959586 -0.000000 0.281416
vn 0.854626 -0.000000 0.519245
vn 0.854626 -0.000000 0.519245
vn 0.907318 0.000000 -0.420445
vn 0.907318 0.000000 -0.420445
vn 0.906128 0.000000 -0.423003
vn 0.906128 0.000000 -0.423003
vn 1.000000 -0.000000 0.000000
vn 1.000000 -0.000000 0.000000
vn 1.000000 -0.000000 0.000000
vn 1.000000 -0.000000 0.000000
vn 1.000000 -0.000000 0.000000
vn 1.000000 -0.000000 0.000000
vn 0.899911 -0.000000 0.436074
vn 0.899911 -0.000000 0.436074
vn 0.717333 -0.000000 0.696731
vn 0.717333 -0.000000 0.696731
vn -0.740859 0.000000 -0.671660
vn -0.910794 0.000000 -0.412861
vn -0.910794 0.000000 -0.412861
vn -0.740859 0.000000 -0.671660
vn -0.984746 0.000000 0.173997
vn -0.984746 0.000000 0.173997
vn -0.996308 0.000000 0.085846
vn -0.996308 0.000000 0.085846
vn -0.999468 0.000000 -0.032621
vn -0.999468 0.000000 -0.032621
vn -0.998012 0.000000 -0.063026
vn -0.998012 0.000000 -0.063026
vn -0.993997 -0.000000 -0.109409
vn -0.993997 -0.000000 -0.109409
vn -0.965472 -0.000000 0.260506
vn -0.965472 -0.000000 0.260506
vn -0.722833 -0.000000 0.691023
vn -0.722833 -0.000000 0.691023
vn -0.751518 -0.000000 0.659713
vn -0.751518 -0.000000 0.659713
vn -0.723521 -0.000000 0.690302
vn -0.723521 -0.000000 0.690302
vn 0.000000 -1.000000 0.000000
vn 0.000000 -1.000000 0.000000
vn 0.000000 -1.000000 0.000000
vn 0.000000 -1.000000 0.000000
vn 0.000000 -1.000000 0.000000
vn 0.000000 -1.000000 0.000000
vn 0.000000 -1.000000 0.000000
vn 0.000000 -1.000000 0.000000
vn 0.000000 -1.000000 0.000000
vn 0.000000 -1.000000 0.000000
vn 0.000000 -1.000000 0.000000
vn 0.000000 -1.000000 0.000000
vn 0.000000 -1.000000 0.000000
vn 0.000000 -1.000000 0.000000
vn 0.000000 -1.000000 0.000000
vn 0.000000 -1.000000 0.000000
vn 0.000000 -1.000000 0.000000
vn 0.000000 -1.000000 0.000000
vn 0.000000 -1.000000 -0.000000
vn 0.000000 -1.000000 -0.000000
vn 0.000000 -1.000000 -0.000000
vn 0.000000 -1.000000 -0.000000
vn 0.000000 -1.000000 -0.000000
vn 0.000000 -1.000000 -0.000000
vn 0.000000 -1.000000 -0.000000
vn 0.000000 -1.000000 -0.000000
vn -0.000000 -1.000000 0.000000
vn -0.000000 -1.000000 0.000000
vn -0.000000 -1.000000 0.000000
vn -0.000000 -1.000000 0.000000
vn 0.000000 -1.000000 -0.000000
vn 0.000000 -1.000000 -0.000000
vn 0.000000 -1.000000 -0.000000
vn 0.000000 -1.000000 -0.000000
vn 0.000000 -1.000000 0.000000
vn 0.000000 -1.000000 0.000000
vn 0.000000 -1.000000 0.000000
vn 0.000000 -1.000000 0.000000
vn 0.000000 -1.000000 0.000000
vn 0.000000 -1.000000 0.000000
vn 0.000000 -1.000000 0.000000
vn 0.000000 -1.000000 0.000000
vn 0.000000 -1.000000 0.000000
vn 0.000000 -1.000000 0.000000
vn 0.000000 -1.000000 0.000000
vn 0.000000 -1.000000 0.000000
vn 0.000000 -1.000000 -0.000000
vn 0.000000 -1.000000 -0.000000
vn 0.000000 -1.000000 -0.000001
vn 0.000000 -1.000000 -0.000001
vn 0.000000 -1.000000 -0.000001
vn 0.000000 -1.000000 -0.000001
vn -0.739738 0.062475 0.669988
vn -0.624721 0.538046 0.565889
vn -0.721446 0.282947 0.632026
vn -0.750739 0.061813 0.657701
vn -0.341956 0.887175 0.309818
vn -0.355029 0.881616 0.310978
vn -0.505750 0.740237 0.443019
vn -0.048857 0.997824 0.044276
vn -0.053179 0.997498 0.046574
vn -0.752176 0.000000 0.658963
vn -0.741190 0.000000 0.671295
vn -0.744268 0.000000 0.667881
vn -0.742812 0.063060 0.666524
vn -0.688777 0.000000 0.724973
vn -0.687601 0.058404 0.723736
vn -0.996631 -0.000000 -0.082018
vn -0.999572 0.000000 -0.029242
vn -0.997864 0.058433 -0.029192
vn -0.994729 0.061709 -0.081885
vn -0.998009 -0.000000 -0.063076
vn -0.995998 0.063451 -0.062949
vn -0.999286 -0.000000 -0.037775
vn -0.997373 0.061845 -0.037706
vn -0.996534 0.000000 0.083189
vn -0.994356 0.066097 0.082990
vn -0.988814 0.000000 0.149154
vn -0.986916 0.061696 0.148963
vn -0.999786 0.000000 -0.020695
vn -0.998041 0.059057 -0.020659
vn -0.618805 0.000000 -0.785544
vn -0.751473 0.000000 -0.659764
vn -0.750159 0.059103 -0.658611
vn -0.617643 0.061675 -0.784036
vn -0.398781 0.059370 -0.915122
vn -0.399486 0.000000 -0.916739
vn 0.218479 0.059529 -0.974024
vn 0.094117 0.064737 -0.993454
vn 0.094265 0.000000 -0.995547
vn 0.218867 0.000000 -0.975755
vn -0.162192 0.057493 -0.985083
vn -0.162460 0.000000 -0.986715
vn 0.756403 0.000000 -0.654106
vn 0.756403 0.000000 -0.654106
vn 0.755156 0.057406 -0.653027
vn 0.755060 0.059560 -0.652945
vn 0.990660 0.000000 -0.136358
vn 0.990660 0.000000 -0.136358
vn 0.988896 0.059635 -0.136116
vn 0.989017 0.057565 -0.136132
vn 0.646330 0.000000 0.763058
vn 0.646330 0.000000 0.763058
vn 0.645252 0.057713 0.761787
vn 0.644920 0.066012 0.761394
vn 0.999364 0.000000 -0.035652
vn 0.999364 0.000000 -0.035652
vn 0.997149 0.066540 -0.035573
vn 0.997238 0.065200 -0.035576
vn 0.800368 0.000000 -0.599508
vn 0.800368 0.000000 -0.599508
vn 0.798692 0.064700 -0.598252
vn 0.798944 0.059644 -0.598441
vn 0.999897 0.000000 -0.014341
vn 0.999526 0.000001 -0.030799
vn 0.997754 0.059506 -0.030745
vn 0.997972 0.062025 -0.014308
vn 1.000000 0.000000 0.000000
vn 0.998063 0.062205 0.000000
vn 0.999835 0.000000 0.018142
vn 0.997912 0.062004 0.018103
vn 0.999397 0.000000 0.034716
vn 0.997660 0.058933 0.034656
vn 0.716358 0.000000 0.697733
vn 0.716358 0.000000 0.697733
vn 0.715115 0.058886 0.696522
vn 0.715120 0.058766 0.696527
vn -0.256684 0.000000 0.966496
vn 0.035601 0.000000 0.999366
vn 0.035540 0.058688 0.997644
vn -0.256264 0.061720 0.964634
vn -0.560198 0.000000 0.828358
vn -0.559145 0.061624 0.826777
vn -0.049879 0.997760 0.044583
vn -0.097213 0.994901 0.026869
vn -0.077633 0.996961 -0.006487
vn -0.060245 0.998176 -0.003805
vn -0.072150 0.997390 -0.002741
vn -0.053410 0.998563 0.004413
vn -0.086569 0.996154 0.013523
vn -0.087645 0.995379 -0.039227
vn -0.055438 0.995991 -0.070206
vn -0.001142 0.995705 -0.092580
vn 0.006146 0.997986 -0.063129
vn 0.048535 0.993818 -0.099848
vn 0.096103 0.994669 -0.037388
vn 0.106493 0.993842 0.030628
vn 0.043890 0.998658 0.027478
vn 0.049512 0.998464 -0.024875
vn 0.084151 0.995676 -0.039350
vn 0.070181 0.997534 -0.000989
vn 0.066704 0.997773 0.000000
vn 0.071565 0.997435 0.001279
vn 0.089226 0.994974 0.045442
vn 0.052516 0.994581 0.089721
vn -0.023221 0.996023 0.086014
vn -0.047468 0.996411 0.070079
vn -0.338703 0.890688 0.303242
vn -0.713847 0.283480 0.640361
vn -0.500213 0.740921 0.448133
vn -0.470345 0.872801 0.130362
vn -0.660722 0.282496 0.695444
vn -0.463540 0.739651 0.487901
vn -0.472191 0.880624 -0.039198
vn -0.958859 0.282495 -0.028051
vn -0.955856 0.283082 -0.078769
vn -0.672705 0.739649 -0.019680
vn -0.669865 0.740407 -0.055483
vn -0.449058 0.893052 -0.028372
vn -0.956920 0.283983 -0.060476
vn -0.669548 0.741562 -0.042307
vn -0.471239 0.881825 -0.017866
vn -0.958438 0.282988 -0.036248
vn -0.671807 0.740289 -0.025451
vn -0.423549 0.905191 0.035140
vn -0.953762 0.289845 0.079546
vn -0.660371 0.748931 0.054890
vn -0.479151 0.874635 0.073677
vn -0.946704 0.288501 0.143245
vn -0.656849 0.747288 0.100547
vn -0.445357 0.872994 -0.198841
vn -0.959063 0.282496 -0.019852
vn -0.593767 0.759767 -0.264943
vn -0.300712 0.874199 -0.381245
vn -0.720863 0.282501 -0.632890
vn -0.592532 0.288703 -0.752035
vn -0.411297 0.747503 -0.521606
vn -0.007354 0.873132 -0.487428
vn -0.383215 0.282498 -0.879398
vn -0.010346 0.755335 -0.655258
vn 0.041931 0.899213 -0.435498
vn 0.209952 0.282493 -0.936012
vn 0.078934 0.554983 -0.828108
vn 0.212373 0.875660 -0.433725
vn -0.141514 0.491163 -0.859496
vn 0.454828 0.872692 -0.177597
vn 0.725594 0.282496 -0.627463
vn 0.725594 0.282496 -0.627463
vn 0.509051 0.739653 -0.440206
vn 0.612753 0.753113 -0.239489
vn 0.463362 0.876449 0.130891
vn 0.950309 0.282495 -0.130804
vn 0.950309 0.282494 -0.130804
vn 0.666702 0.739653 -0.091768
vn 0.318576 0.925872 0.203153
vn 0.620002 0.282492 0.731981
vn 0.620002 0.282492 0.731981
vn 0.434974 0.739651 0.513531
vn 0.434974 0.739651 0.513531
vn 0.368828 0.910365 -0.187623
vn 0.820099 0.571474 -0.029257
vn 0.676507 0.688927 -0.260226
vn 0.442001 0.873155 -0.205514
vn 0.767769 0.282493 -0.575090
vn 0.767769 0.282493 -0.575090
vn 0.596018 0.753784 -0.276718
vn 0.467873 0.883771 -0.006644
vn 0.958814 0.282493 -0.029545
vn 0.959162 0.282523 -0.013736
vn 0.672877 0.739692 -0.009581
vn 0.465146 0.885234 0.000000
vn 0.959269 0.282493 0.000000
vn 0.672988 0.739653 0.000000
vn 0.468159 0.883604 0.008423
vn 0.959101 0.282530 0.017381
vn 0.672824 0.739703 0.012133
vn 0.434515 0.872910 0.221865
vn 0.958693 0.282488 0.033302
vn 0.577019 0.761667 0.294809
vn 0.246661 0.871864 0.423097
vn 0.687181 0.282496 0.669312
vn 0.687181 0.282496 0.669312
vn 0.482100 0.739652 0.469569
vn -0.126002 0.873491 0.470252
vn 0.034151 0.282497 0.958660
vn -0.218997 0.526114 0.821732
vn 0.023960 0.739649 0.672566
vn -0.271923 0.874451 0.401738
vn -0.476418 0.526390 0.704230
s 1
g polySurface1 pCube3
f 1/1/1 2/2/2 96/3/3 71/4/4
f 2/2/2 3/5/5 95/6/6 96/3/3
f 3/5/5 4/7/7 94/8/8 95/6/6
s 2
g textureEditorIsolateSelectSet polySurface1 pCube3
f 5/9/9 6/10/10 10/11/11 9/12/12
f 6/10/10 7/13/13 11/14/14 10/11/11
f 7/13/13 8/15/15 12/16/16 11/14/14
f 9/12/12 10/11/11 14/17/17 13/18/18
f 10/11/11 11/14/14 15/19/19 14/17/17
f 11/14/14 12/16/16 16/20/20 15/19/19
f 13/18/18 14/17/17 18/21/21 17/22/22
f 14/17/17 15/19/19 19/23/23 18/21/21
f 15/19/19 16/20/20 20/24/24 19/23/23
f 17/22/22 18/21/21 22/25/25 21/26/26
f 18/21/21 19/23/23 23/27/27 22/25/25
f 19/23/23 20/24/24 24/28/28 23/27/27
f 21/26/26 22/25/25 26/29/29 25/30/30
f 22/25/25 23/27/27 27/31/31 26/29/29
f 23/27/27 24/28/28 28/32/32 27/31/31
f 25/30/30 26/29/29 30/33/33 29/34/34
f 26/29/29 27/31/31 31/35/35 30/33/33
f 27/31/31 28/32/32 32/36/36 31/35/35
f 29/34/34 30/33/33 34/37/37 33/38/38
f 30/33/33 31/35/35 35/39/39 34/37/37
f 31/35/35 32/36/36 36/40/40 35/39/39
f 33/38/38 34/37/37 38/41/41 37/42/42
f 34/37/37 35/39/39 39/43/43 38/41/41
f 35/39/39 36/40/40 40/44/44 39/43/43
f 37/42/42 38/41/41 42/45/45 41/46/46
f 38/41/41 39/43/43 43/47/47 42/45/45
f 39/43/43 40/44/44 44/48/48 43/47/47
f 41/46/46 42/45/45 46/49/49 45/50/50
f 42/45/45 43/47/47 47/51/51 46/49/49
f 43/47/47 44/48/48 48/52/52 47/51/51
s 3
g polySurface1 pCube3
f 81/53/53 82/54/54 50/55/55 49/56/56
f 82/54/54 83/57/57 51/58/58 50/55/55
f 83/57/57 84/59/59 52/60/60 51/58/58
s 4
f 54/61/61 52/60/62 84/59/63 85/62/64
f 56/63/65 54/61/61 85/62/64 86/64/66
f 58/65/67 56/63/65 86/64/66 87/66/68
f 60/67/69 58/65/67 87/66/68 88/68/70
f 62/69/71 60/67/69 88/68/70 89/70/72
f 64/71/73 62/69/71 89/70/72 90/72/74
f 66/73/75 64/71/73 90/72/74 91/74/76
f 68/75/77 66/73/75 91/74/76 92/76/78
f 70/77/79 68/75/77 92/76/78 93/78/80
f 4/7/81 70/77/79 93/78/80 94/8/82
s 5
f 49/56/83 53/79/84 80/80/85 81/53/86
f 53/79/84 55/81/87 79/82/88 80/80/85
f 55/81/87 57/83/89 78/84/90 79/82/88
f 57/83/89 59/85/91 77/86/92 78/84/90
f 59/85/91 61/87/93 76/88/94 77/86/92
f 61/87/93 63/89/95 75/90/96 76/88/94
f 63/89/95 65/91/97 74/92/98 75/90/96
f 65/91/97 67/93/99 73/94/100 74/92/98
f 67/93/99 69/95/101 72/96/102 73/94/100
f 69/95/101 1/1/103 71/4/104 72/96/102
s 6
g textureEditorIsolateSelectSet polySurface1 pCube3
f 72/97/105 71/98/106 97/99/107 98/100/108
f 73/101/109 72/97/105 98/100/108 99/102/110
f 74/103/111 73/101/109 99/102/110 100/104/112
f 75/105/113 74/103/111 100/104/112 101/106/114
f 76/107/115 75/105/113 101/106/114 102/108/116
f 77/109/117 76/107/115 102/108/116 103/110/118
f 78/111/119 77/109/117 103/110/118 104/112/120
f 79/113/121 78/111/119 104/112/120 105/114/122
f 80/115/123 79/113/121 105/114/122 106/116/124
f 81/117/125 80/115/123 106/116/124 107/118/126
f 82/119/127 81/120/125 107/121/126 108/122/128
f 83/123/129 82/119/127 108/122/128 109/124/130
f 84/125/131 83/123/129 109/124/130 110/126/132
f 85/127/133 84/128/131 110/129/132 111/130/134
f 86/131/135 85/127/133 111/130/134 112/132/136
f 87/133/137 86/131/135 112/132/136 113/134/138
f 88/135/139 87/133/137 113/134/138 114/136/140
f 89/137/141 88/135/139 114/136/140 115/138/142
f 90/139/143 89/137/141 115/138/142 116/140/144
f 91/141/145 90/139/143 116/140/144 117/142/146
f 92/143/147 91/141/145 117/142/146 118/144/148
f 93/145/149 92/143/147 118/144/148 119/146/150
f 94/147/151 93/145/149 119/146/150 120/148/152
f 95/149/153 94/147/151 120/148/152 121/150/154
f 96/151/155 95/149/153 121/150/154 122/152/156
f 71/98/106 96/151/155 122/152/156 97/99/107
s 2
f 126/153/157 125/154/158 128/155/159 127/156/160
f 125/154/158 124/157/161 129/158/162 128/155/163
f 124/157/161 123/159/164 130/160/165 129/158/162
f 98/100/166 97/99/167 126/153/157 127/156/160
f 99/102/168 98/100/166 127/156/160 131/161/169
f 100/104/170 99/102/168 131/161/169 135/162/171
s 9
f 101/106/172 100/104/173 135/162/174 139/163/175
f 102/108/176 101/106/172 139/163/175 143/164/177
f 103/110/178 102/108/176 143/164/177 147/165/179
f 104/112/180 103/110/178 147/165/179 151/166/181
f 105/114/182 104/112/180 151/166/181 155/167/183
f 106/116/184 105/114/182 155/167/183 159/168/185
s 10
f 107/118/186 106/116/187 159/168/188 163/169/189
f 163/170/189 167/171/190 108/122/191 107/121/186
s 2
f 167/171/192 171/172/193 109/124/194 108/122/195
f 171/172/193 175/173/196 110/126/197 109/124/194
s 12
f 111/130/198 110/129/199 175/174/200 179/175/201
s 13
f 112/132/202 111/130/203 179/175/204 183/176/205
s 14
f 113/134/206 112/132/207 183/176/208 187/177/209
s 2
f 114/136/210 113/134/211 187/177/212 191/178/213
s 16
f 115/138/214 114/136/215 191/178/216 195/179/217
s 17
f 116/140/218 115/138/219 195/179/220 199/180/221
f 117/142/222 116/140/218 199/180/221 203/181/223
f 118/144/224 117/142/222 203/181/223 207/182/225
f 119/146/226 118/144/224 207/182/225 211/183/227
s 18
f 120/148/228 119/146/229 211/183/230 215/184/231
s 2
f 121/150/232 120/148/233 215/184/234 219/185/235
f 122/152/236 121/150/232 219/185/235 223/186/237
f 97/99/167 122/152/236 223/186/237 126/153/157
f 5/9/9 9/12/12 130/160/165 123/159/164
f 9/12/12 13/18/18 134/187/238 130/160/165
f 13/18/18 17/22/22 138/188/239 134/187/238
f 17/22/22 21/26/26 142/189/240 138/188/239
f 21/26/26 25/30/30 146/190/241 142/189/240
f 25/30/30 29/34/34 150/191/242 146/190/241
f 29/34/34 33/38/38 154/192/243 150/191/242
f 33/38/38 37/42/42 158/193/244 154/192/243
f 37/42/42 41/46/46 162/194/245 158/193/244
f 41/46/46 45/50/50 166/195/246 162/194/245
f 45/50/50 46/49/49 170/196/247 166/197/246
f 46/49/49 47/51/51 174/198/248 170/196/247
f 47/51/51 48/52/52 178/199/249 174/198/248
f 48/52/52 44/48/48 182/200/250 178/201/249
f 44/48/48 40/44/44 186/202/251 182/200/250
f 40/44/44 36/40/40 190/203/252 186/202/251
f 36/40/40 32/36/36 194/204/253 190/203/252
f 32/36/36 28/32/32 198/205/254 194/204/253
f 28/32/32 24/28/28 202/206/255 198/205/254
f 24/28/28 20/24/24 206/207/256 202/206/255
f 20/24/24 16/20/20 210/208/257 206/207/256
f 16/20/20 12/16/16 214/209/258 210/208/257
f 12/16/16 8/15/15 218/210/259 214/209/258
f 8/15/15 7/13/13 222/211/260 218/210/259
f 7/13/13 6/10/10 226/212/261 222/211/260
f 6/10/10 5/9/9 123/159/164 226/212/261
f 129/158/162 130/160/165 134/187/238 133/213/262
f 127/156/160 128/155/159 132/214/263 131/161/169
f 128/155/163 129/158/162 133/213/262 132/214/264
f 133/213/262 134/187/238 138/188/239 137/215/265
f 131/161/169 132/214/263 136/216/266 135/162/171
f 132/214/264 133/213/262 137/215/265 136/216/267
f 137/215/265 138/188/239 142/189/240 141/217/268
s 9
f 135/162/174 136/216/269 140/218/270 139/163/175
s 2
f 136/216/271 137/215/265 141/217/268 140/218/272
f 141/217/268 142/189/240 146/190/241 145/219/273
s 9
f 139/163/175 140/218/270 144/220/274 143/164/177
s 2
f 140/218/272 141/217/268 145/219/273 144/220/275
f 145/219/273 146/190/241 150/191/242 149/221/276
s 9
f 143/164/177 144/220/274 148/222/277 147/165/179
s 2
f 144/220/275 145/219/273 149/221/276 148/222/278
f 149/221/276 150/191/242 154/192/243 153/223/279
s 9
f 147/165/179 148/222/277 152/224/280 151/166/181
s 2
f 148/222/278 149/221/276 153/223/279 152/224/281
f 153/223/279 154/192/243 158/193/244 157/225/282
s 9
f 151/166/181 152/224/280 156/226/283 155/167/183
s 2
f 152/224/281 153/223/279 157/225/282 156/226/284
f 157/225/282 158/193/244 162/194/245 161/227/285
s 9
f 155/167/183 156/226/283 160/228/286 159/168/185
s 2
f 156/226/284 157/225/282 161/227/285 160/228/287
f 161/227/285 162/194/245 166/195/246 165/229/288
s 10
f 159/168/188 160/228/289 164/230/290 163/169/189
s 2
f 160/228/287 161/227/285 165/229/288 164/230/291
f 165/231/288 166/197/246 170/196/247 169/232/292
s 10
f 163/170/189 164/233/290 168/234/293 167/171/190
s 2
f 164/233/291 165/231/288 169/232/292 168/234/294
f 169/232/292 170/196/247 174/198/248 173/235/295
f 167/171/192 168/234/296 172/236/297 171/172/193
f 168/234/294 169/232/292 173/235/295 172/236/297
f 173/235/295 174/198/248 178/199/249 177/237/298
f 171/172/193 172/236/297 176/238/299 175/173/196
f 172/236/297 173/235/295 177/237/298 176/238/299
f 177/239/298 178/201/249 182/200/250 181/240/300
s 12
f 175/174/200 176/241/301 180/242/302 179/175/201
s 2
f 176/241/303 177/239/298 181/240/300 180/242/304
f 181/240/300 182/200/250 186/202/251 185/243/305
s 13
f 179/175/204 180/242/306 184/244/307 183/176/205
s 2
f 180/242/304 181/240/300 185/243/305 184/244/308
f 185/243/305 186/202/251 190/203/252 189/245/309
s 14
f 183/176/208 184/244/310 188/246/311 187/177/209
s 2
f 184/244/312 185/243/305 189/245/309 188/246/313
f 189/245/309 190/203/252 194/204/253 193/247/314
f 187/177/212 188/246/315 192/248/316 191/178/213
f 188/246/315 189/245/309 193/247/314 192/248/316
f 193/247/314 194/204/253 198/205/254 197/249/317
s 16
f 191/178/216 192/248/318 196/250/319 195/179/217
s 2
f 192/248/316 193/247/314 197/249/317 196/250/320
f 197/249/317 198/205/254 202/206/255 201/251/321
s 17
f 195/179/220 196/250/322 200/252/323 199/180/221
s 2
f 196/250/320 197/249/317 201/251/321 200/252/324
f 201/251/321 202/206/255 206/207/256 205/253/325
s 17
f 199/180/221 200/252/323 204/254/326 203/181/223
s 2
f 200/252/324 201/251/321 205/253/325 204/254/327
f 205/253/325 206/207/256 210/208/257 209/255/328
s 17
f 203/181/223 204/254/326 208/256/329 207/182/225
s 2
f 204/254/327 205/253/325 209/255/328 208/256/330
f 209/255/328 210/208/257 214/209/258 213/257/331
s 17
f 207/182/225 208/256/329 212/258/332 211/183/227
s 2
f 208/256/330 209/255/328 213/257/331 212/258/333
f 213/257/331 214/209/258 218/210/259 217/259/334
s 18
f 211/183/230 212/258/335 216/260/336 215/184/231
s 2
f 212/258/333 213/257/331 217/259/334 216/260/337
f 217/259/334 218/210/259 222/211/260 221/261/338
f 215/184/234 216/260/339 220/262/340 219/185/235
f 216/260/341 217/259/334 221/261/338 220/262/340
f 221/261/338 222/211/260 226/212/261 225/263/342
f 219/185/235 220/262/340 224/264/343 223/186/237
f 220/262/340 221/261/338 225/263/342 224/264/343
f 123/159/164 124/157/161 225/263/342 226/212/261
f 124/157/161 125/154/158 224/264/343 225/263/342
f 125/154/158 126/153/157 223/186/237 224/264/343
